<?xml version="1.0" encoding="utf-8"?>
<!-- Generator: Adobe Illustrator 16.0.0, SVG Export Plug-In . SVG Version: 6.00 Build 0)  -->
<!DOCTYPE svg PUBLIC "-//W3C//DTD SVG 1.1//EN" "http://www.w3.org/Graphics/SVG/1.1/DTD/svg11.dtd">
<svg version="1.1" id="Layer_1" xmlns="http://www.w3.org/2000/svg" xmlns:xlink="http://www.w3.org/1999/xlink" x="0px" y="0px"
	 width="612px" height="792px" viewBox="0 0 612 792" enable-background="new 0 0 612 792" xml:space="preserve">
<g id="BG">
	<rect id="XMLID_1_" x="867.059" y="778.228" fill="#B36138" width="612.001" height="136.743"/>
</g>
<g id="MG">
	<rect id="XMLID_7_" x="867.059" y="778.228" fill="#CC704C" width="79.688" height="136.743"/>
	<rect id="XMLID_4_" x="1399.372" y="778.228" fill="#CC704C" width="79.688" height="136.743"/>
	<rect id="XMLID_3_" x="1115.62" y="778.228" fill="#CC704C" width="114.877" height="136.743"/>
	<g id="Window">
		<rect id="XMLID_2_" x="1135.702" y="804.908" fill="#3F3E3D" width="14.98" height="23.236"/>
		<rect id="XMLID_6_" x="1155.464" y="804.908" fill="#3F3E3D" width="14.98" height="23.236"/>
		<rect id="XMLID_8_" x="1175.228" y="804.908" fill="#3F3E3D" width="14.98" height="23.236"/>
		<rect id="XMLID_15_" x="1195.435" y="804.908" fill="#3F3E3D" width="14.982" height="23.236"/>
		<rect id="XMLID_22_" x="961.663" y="804.908" fill="#3F3E3D" width="14.981" height="23.236"/>
		<rect id="XMLID_21_" x="985.569" y="804.908" fill="#3F3E3D" width="14.981" height="23.236"/>
		<rect id="XMLID_20_" x="1011.069" y="804.908" fill="#3F3E3D" width="14.981" height="23.236"/>
		<rect id="XMLID_19_" x="1036.411" y="804.908" fill="#3F3E3D" width="14.98" height="23.236"/>
		<rect id="XMLID_33_" x="1061.751" y="804.908" fill="#3F3E3D" width="14.98" height="23.236"/>
		<rect id="XMLID_23_" x="1087.505" y="804.908" fill="#3F3E3D" width="14.982" height="23.236"/>
		<rect id="XMLID_39_" x="961.663" y="835.666" fill="#3F3E3D" width="14.981" height="23.238"/>
		<rect id="XMLID_38_" x="985.569" y="835.666" fill="#3F3E3D" width="14.981" height="23.238"/>
		<rect id="XMLID_37_" x="1011.069" y="835.666" fill="#3F3E3D" width="14.981" height="23.238"/>
		<rect id="XMLID_36_" x="1036.411" y="835.666" fill="#3F3E3D" width="14.98" height="23.238"/>
		<rect id="XMLID_35_" x="1061.751" y="835.666" fill="#3F3E3D" width="14.98" height="23.238"/>
		<rect id="XMLID_34_" x="1087.505" y="835.666" fill="#3F3E3D" width="14.982" height="23.238"/>
		<rect id="XMLID_45_" x="961.663" y="867.031" fill="#3F3E3D" width="14.981" height="23.236"/>
		<rect id="XMLID_44_" x="985.569" y="867.031" fill="#3F3E3D" width="14.981" height="23.236"/>
		<rect id="XMLID_43_" x="1011.069" y="867.031" fill="#3F3E3D" width="14.981" height="23.236"/>
		<rect id="XMLID_42_" x="1036.411" y="867.031" fill="#3F3E3D" width="14.98" height="23.236"/>
		<rect id="XMLID_41_" x="1061.751" y="867.031" fill="#3F3E3D" width="14.98" height="23.236"/>
		<rect id="XMLID_40_" x="1087.505" y="867.031" fill="#3F3E3D" width="14.982" height="23.236"/>
		<rect id="XMLID_63_" x="1247.073" y="804.621" fill="#3F3E3D" width="14.98" height="23.236"/>
		<rect id="XMLID_62_" x="1270.979" y="804.621" fill="#3F3E3D" width="14.98" height="23.236"/>
		<rect id="XMLID_61_" x="1296.479" y="804.621" fill="#3F3E3D" width="14.98" height="23.236"/>
		<rect id="XMLID_60_" x="1321.819" y="804.621" fill="#3F3E3D" width="14.982" height="23.236"/>
		<rect id="XMLID_59_" x="1347.161" y="804.621" fill="#3F3E3D" width="14.98" height="23.236"/>
		<rect id="XMLID_58_" x="1372.946" y="804.621" fill="#3F3E3D" width="14.982" height="23.236"/>
		<rect id="XMLID_57_" x="1247.073" y="835.379" fill="#3F3E3D" width="14.98" height="23.238"/>
		<rect id="XMLID_56_" x="1270.979" y="835.379" fill="#3F3E3D" width="14.98" height="23.238"/>
		<rect id="XMLID_55_" x="1296.479" y="835.379" fill="#3F3E3D" width="14.98" height="23.238"/>
		<rect id="XMLID_54_" x="1321.819" y="835.379" fill="#3F3E3D" width="14.982" height="23.238"/>
		<rect id="XMLID_53_" x="1347.161" y="835.379" fill="#3F3E3D" width="14.98" height="23.238"/>
		<rect id="XMLID_52_" x="1372.946" y="835.379" fill="#3F3E3D" width="14.982" height="23.238"/>
		<rect id="XMLID_51_" x="1247.073" y="866.713" fill="#3F3E3D" width="14.98" height="23.236"/>
		<rect id="XMLID_50_" x="1270.979" y="866.713" fill="#3F3E3D" width="14.98" height="23.236"/>
		<rect id="XMLID_49_" x="1296.479" y="866.713" fill="#3F3E3D" width="14.98" height="23.236"/>
		<rect id="XMLID_48_" x="1321.819" y="866.713" fill="#3F3E3D" width="14.982" height="23.236"/>
		<rect id="XMLID_47_" x="1347.161" y="866.713" fill="#3F3E3D" width="14.98" height="23.236"/>
		<rect id="XMLID_46_" x="1372.946" y="866.713" fill="#3F3E3D" width="14.982" height="23.236"/>
		<rect id="XMLID_11_" x="875.347" y="835.666" fill="#3F3E3D" width="14.98" height="23.238"/>
		<rect id="XMLID_10_" x="895.108" y="835.666" fill="#3F3E3D" width="14.98" height="23.238"/>
		<rect id="XMLID_9_" x="914.872" y="835.666" fill="#3F3E3D" width="14.98" height="23.238"/>
		<rect id="XMLID_18_" x="875.347" y="804.908" fill="#3F3E3D" width="14.98" height="23.236"/>
		<rect id="XMLID_17_" x="895.108" y="804.908" fill="#3F3E3D" width="14.98" height="23.236"/>
		<rect id="XMLID_16_" x="914.872" y="804.908" fill="#3F3E3D" width="14.98" height="23.236"/>
		<rect id="XMLID_14_" x="875.347" y="867.031" fill="#3F3E3D" width="14.98" height="23.236"/>
		<rect id="XMLID_13_" x="895.108" y="867.031" fill="#3F3E3D" width="14.98" height="23.236"/>
		<rect id="XMLID_12_" x="914.872" y="867.031" fill="#3F3E3D" width="14.98" height="23.236"/>
		<rect id="XMLID_32_" x="1416.585" y="803.824" fill="#3F3E3D" width="14.979" height="23.236"/>
		<rect id="XMLID_31_" x="1436.347" y="803.824" fill="#3F3E3D" width="14.98" height="23.236"/>
		<rect id="XMLID_30_" x="1456.108" y="803.824" fill="#3F3E3D" width="14.982" height="23.236"/>
		<rect id="XMLID_29_" x="1416.585" y="836.305" fill="#3F3E3D" width="14.979" height="23.236"/>
		<rect id="XMLID_28_" x="1436.347" y="836.305" fill="#3F3E3D" width="14.98" height="23.236"/>
		<rect id="XMLID_27_" x="1456.108" y="836.305" fill="#3F3E3D" width="14.982" height="23.236"/>
		<rect id="XMLID_26_" x="1416.585" y="866.904" fill="#3F3E3D" width="14.979" height="23.236"/>
		<rect id="XMLID_25_" x="1436.347" y="866.904" fill="#3F3E3D" width="14.98" height="23.236"/>
		<rect id="XMLID_24_" x="1456.108" y="866.904" fill="#3F3E3D" width="14.982" height="23.236"/>
	</g>
	<g id="Layer_6">
		<rect id="XMLID_65_" x="1109.085" y="861.039" fill="#EE9564" width="127.947" height="53.932"/>
	</g>
	<g id="XMLID_70_">
		<path id="XMLID_67_" fill="#924522" d="M1225.876,914.971h-105.635v-37.93c5.004-0.096,10.01-0.191,15.014-0.287
			c30.759-0.479,60.977-0.352,90.621,0.287C1225.876,889.662,1225.876,902.316,1225.876,914.971z"/>
		<path id="XMLID_68_" fill="#924522" d="M1131.78,877.104c0,0,5.738-8.352,22.026-11.568c17.722-3.477,32.099-1.467,37.868,0
			c5.77,1.465,9.723,2.484,14.662,5.227c5.355,2.934,9.086,5.93,9.086,6.344s0,0.414,0,0.414L1131.78,877.104z"/>
	</g>
	<g id="Entrance">
		<g id="XMLID_69_">
			<rect id="XMLID_5_" x="1141.184" y="878.348" fill="#0D0D0D" width="63.751" height="29.451"/>
			<rect id="XMLID_64_" x="1142.555" y="879.941" fill="#E5E0DF" width="29.739" height="27.826"/>
			<rect id="XMLID_66_" x="1173.696" y="879.941" fill="#E5E0DF" width="29.74" height="27.826"/>
		</g>
	</g>
</g>
<g id="FG">
	<g id="Front_Roof">
		<polygon id="XMLID_72_" fill="#F8995A" points="1092.798,870.537 1115.62,844.305 1230.497,844.305 1253.321,870.537 		"/>
		<rect id="XMLID_71_" x="1127.892" y="830.248" fill="#F8995A" width="90.303" height="14.057"/>
		<polygon id="XMLID_74_" fill="#F8995A" points="1121.325,844.305 1127.892,830.248 1127.892,844.305 		"/>
		<polygon id="XMLID_75_" fill="#F8995A" points="1224.792,844.305 1218.226,830.248 1218.226,844.305 		"/>
		<polygon id="XMLID_76_" fill="#F8E7DD" points="1163.814,844.305 1173.06,830.248 1182.718,844.305 1166.364,844.305 		"/>
		<polygon id="XMLID_77_" fill="#EAB496" points="1173.251,832.797 1180.614,844.273 1166.364,844.305 		"/>
	</g>
	<g id="Layer_9">
		<polygon id="XMLID_82_" fill="#D28F62" points="1065.991,799.36 946.747,799.36 946.747,778.228 1034.434,778.228 
			1065.991,778.228 		"/>
		<polygon id="XMLID_87_" fill="#D28F62" points="1399.372,799.36 1280.128,799.36 1280.128,778.228 1367.815,778.228 
			1399.372,778.228 		"/>
		<path id="XMLID_83_" fill="#D28F62" d="M808.76,693.217"/>
		<path id="XMLID_84_" fill="#D28F62" d="M925.899,712.82"/>
	</g>
	<g id="Roof1">
		<rect id="XMLID_73_" x="867.059" y="778.228" fill="#F8995A" width="79.688" height="20.655"/>
		<polygon id="XMLID_79_" fill="#F8995A" points="961.663,798.883 946.747,778.228 946.747,798.883 		"/>
		<g id="XMLID_78_">
			<rect id="XMLID_81_" x="1399.372" y="778.228" fill="#F8995A" width="79.688" height="20.655"/>
			<polygon id="XMLID_80_" fill="#F8995A" points="1384.454,798.883 1399.372,778.228 1399.372,798.883 			"/>
		</g>
	</g>
	<polygon id="XMLID_88_" fill="#B36138" points="1280.128,799.36 1320.067,778.228 1280.128,778.228 	"/>
	<polygon id="XMLID_86_" fill="#B36138" points="1065.991,799.36 1026.052,778.228 1065.991,778.228 	"/>
</g>
<g id="Layer_10">
	<rect id="XMLID_85_" x="867.059" y="762.354" fill="#B36138" width="612.001" height="15.874"/>
</g>
<g id="Layer_12">
	<rect id="XMLID_92_" x="1121.325" y="767.549" fill="#FFFFFF" width="106.463" height="8.064"/>
</g>
<g id="Layer_11">
	<rect id="XMLID_89_" x="1115.62" y="760.441" fill="#CC704C" width="114.877" height="17.786"/>
	
		<text id="XMLID_91_" transform="matrix(0.5126 0 0 1 1123.123 770.9297)" fill="#FFFFFF" font-family="'BodoniMT'" font-size="6.7665">   SREE CHITHRA THIRUNAL COLLEGE OF ENGINEERING</text>
</g>
<g id="Pillars">
	<rect id="XMLID_93_" x="1121.325" y="876.945" fill="#EFE4E7" width="3.283" height="37.994"/>
	<rect id="XMLID_95_" x="1125.788" y="876.945" fill="#EFE4E7" width="3.283" height="37.994"/>
	<rect id="XMLID_97_" x="1217.046" y="876.85" fill="#EFE4E7" width="3.283" height="38.154"/>
	<rect id="XMLID_96_" x="1221.509" y="876.85" fill="#EFE4E7" width="3.283" height="38.154"/>
</g>
<g id="Layer_14">
	<rect id="XMLID_94_" x="1109.085" y="911.369" fill="#EE9C74" width="127.947" height="3.602"/>
	<rect id="XMLID_99_" x="1109.085" y="911.369" fill="#EFDED7" width="127.947" height="1.02"/>
	<rect id="XMLID_98_" x="1170.667" y="909.775" fill="#C97F61" width="4.781" height="5.26"/>
	<rect id="XMLID_102_" x="1146.762" y="909.775" fill="#C97F61" width="3.666" height="5.26"/>
	<rect id="XMLID_101_" x="1129.071" y="909.775" fill="#C97F61" width="2.709" height="5.26"/>
	<rect id="XMLID_103_" x="1210.991" y="909.775" fill="#C97F61" width="2.709" height="5.26"/>
	<rect id="XMLID_100_" x="1194.733" y="909.775" fill="#C97F61" width="3.666" height="5.26"/>
</g>
</svg>
