<svg xmlns="http://www.w3.org/2000/svg" width="1920" height="1080" viewBox="0 0 1920 1080"><style>.a{fill:#FFF;opacity:0.5;}.b{fill:#FFF;}</style><path d="M1920 267.4l-66.6 9.3 22.5 15 -91.5 15 37.1 11.7c-7.2 2.3-29 10.8-29 10.8l-75.1 2.3 19.1 15.4 -118.7 3.6 28.8 13c0 0-73.7 12.2-82.7 12.5 -9 0.3-38.5-12.5-45.9-6.3 -7.4 6.2-37.6 1.1-37.6 1.1l-7.8 17.4 -36.8-8 -29.1 14.6 -68 5.6 -46.2 1.5 -23.2 2.9 -10.7 0.3 -59.6 18.7 -23.3 0.7c0 0-16.1 0.4-23.2 0.7 -3.1 0.1-0.8 7.7 3.2 17.6 -10.9-4.9-21.2-11.1-31.8-16.6 -19.5-10.3-37.7-23.1-56.1-35.6 -2.8-2-5.9-4-9.2-4.8 -8.6-2.1-17.4-3.9-26.2-5.3 -4.8-0.7-9.5 1.3-13.7 4.4 -9.9 7.3-19.5 15.1-29.7 21.9 -8.3 5.7-17.1 10.5-25.8 15.4 -5.4 3.1-10.9 6.1-16.2 9.6 -0.6-0.1-1.5-0.2-2.4-0.3 0-0.2-0.1-0.5-0.1-0.7 -8.7-1.2-17.4-2.3-26.1-3.4 -5.1-1.1-10.4-2.2-15.8-3.7 0 0-0.1-0.1-0.1-0.1 -3.8-1.2-7.7-2.4-11.6-3.6 -25.7-9-58.6-21.2-63.5-23.1 -0.2-0.1-1.2 1.6-1.8 1.3 -0.2-0.1-3.6 6.1-3.2 0.8L807 468c1 0.3 1.9 0.6 2.9 0.8l1.6-0.1c-0.1 0 2.4 3.8 2.3 3.9 5.9 2.1 9 5.2 14.6 7.3 6.3 2.7 13.6 5.6 15.4 4.9 0 0 0 0.1 0 0.1 -2.5 1.1-5 2.2-7.4 3.7 -7.4 4.6-12.6 11-15.4 19.9 -2.9 9.4-4.6 18.9-1.9 28.3 0.7 2.6 2.1 4.9 3.5 7.1 2.2 3.4 5 6.3 6.8 9.9 2.9 5.8 7.8 8.3 12.9 10.4 0 0 0.1 0 0.1 0 0 0 0.1 0 0.1 0 0.5 0.2 1 0.4 1.4 0.6 1.7 0.6 3.3 0.7 4.8 0.6 0.4 0.4 0.8 1 0.7 1.9 -7.7 0.6-13.9 4.3-19.3 10.6 -0.1 0.1-0.3 0.4-0.4 0.5 -11.1 9.4-10.6 22.2-10.5 35.1 0 10.1 5.3 16.3 11.1 22.3 8 8.4 17.9 13.2 28.3 16.6 4.2 1.3 8.5 2.5 12.7 3.6 2 0.7 3.6 1.2 3.9 1.3 0.9 0.3 22.3 6.4 29.2 8.3 -0.7 0.3-1.4 0.6-2 0.8 -0.9-0.4-1.8-0.9-2.7-1.1 -9.8-1.6-19.8-0.8-29.9-0.1 -0.8 0.1-1.7 0.1-2.5 0.2l8.8 65.9c5-0.3 15.1-0.9 25.5-1.4 11.2 0 22.3 1.4 33.6 2.1 0-0.4-0.1-0.7-0.1-1.2 0.9 0.2 1.8 0.5 2.7 0.6 0 0.2 0.1 0.4 0.1 0.7 23.5-0.8 46.7-1.6 69.9-2.3 0-0.3 0.1-0.7 0.2-1.1 -0.1-0.1-0.2-0.2-0.4-0.3l12.6-0.2c15.3-2.1 30.6-3.2 46-5.1 20.5-2.4 39.8-10 58.8-19.7 1-0.5 2-1 2.9-1.5l0.2 3.7 48.3 6 28.6 7c0 0 20.5 0.2 38.6 0.6 9.5 2.5 18.9 4.2 27.6 5 32.1 3 66.2-2 66.2-2l107.4-3.2c0 0 60.6 6.1 65.8 9.9 5.2 3.7 17.9-0.5 17.9-0.5l62.6-1.9c0 0 35.5 7 46.1 11.1 10.5 4.1 50.1-1.5 50.1-1.5l50.5-13.9 42.9-1.3 92.8 3.3c0 0 20.9-1.7 46.7-2.3V267.4z"/><path d="M1105.2 910.3l0-6.3c0.6-12.4-16.8-12.9-48.2-20.3 -58.6-21.3-60.4-26.8-53.4-63.9 7-37.2 45.3-227.5 61.5-293.9 16.3-66.4 36-113 30.2-173.4 -5.8-60.5-19.6-176.5-19.6-176.5H966.7h-0.5H857.1c0 0-13.8 116.1-19.6 176.5 -5.8 60.5 13.9 107 30.2 173.4 16.3 66.4 54.6 256.7 61.5 293.9 7 37.2 5.2 42.6-53.4 63.9 -31.3 7.4-48.8 7.9-48.2 20.3l0 6.3c0 0-11 16.2 138.5 21.5v0c0.1 0 0.2 0 0.2 0 0.1 0 0.2 0 0.2 0v0C1116.2 926.5 1105.2 910.3 1105.2 910.3z" style="fill:#FFF;opacity:0.2"/><path d="M1067.6 332.2l-16-156.2h-87.6 -87.6l-16 156.2c0 0-6 50 0 89 6 39 71 322.3 71 322.3s4.9 29.7 32.6 30.7c27.8-1 32.6-30.7 32.6-30.7s65-283.3 71-322.3c1.4-9.2 2.2-19.1 2.5-28.7C1071.1 361.3 1067.6 332.2 1067.6 332.2z" fill="#F5C250"/><path d="M894.4 176c0 0-12 115.2-17 188.2s82 452.7 82 452.7 8 5.3 10.7 0 -77.7-361.7-71.7-450.7c6-89 16-190.2 16-190.2H894.4z" class="a"/><path d="M920.4 176c0 0-9.8 115.5-14.8 188.5s67.8 453.2 67.8 453.2 5.4 3.3 6.7 0.3c2.5-5.4-73.5-363-67.5-452 6-89 14.3-190 14.3-190H920.4z" class="a"/><circle cx="906.6" cy="177" r="47.8" class="b"/><circle cx="926.3" cy="117.2" r="28.1" class="b"/><circle cx="887.2" cy="129.2" r="15.6" class="b"/><circle cx="866.2" cy="213.3" r="28" class="b"/><circle cx="894.1" cy="231.6" r="15" class="b"/><circle cx="853.7" cy="297.9" r="15" class="b"/><circle cx="858.8" cy="275.3" r="15" class="b"/><circle cx="848.8" cy="357" r="10" class="b"/><circle cx="964" cy="139" r="34.5" class="b"/><circle cx="974.2" cy="173.5" r="34.5" class="b"/><circle cx="974.2" cy="167.5" r="34.5" class="b"/><circle cx="1014.7" cy="120.8" r="34.5" class="b"/><circle cx="1044.2" cy="167.5" r="45.8" class="b"/><path d="M848.6 567.3l-6.8-80c5.2-0.3 10.3-0.6 15.4-0.3 8.1 0.4 16.2 1.1 24.3 1.8 0.8 0.1 1.6 0.1 2.4 0.2 22.2 1.7 52.3-1.2 52.3-1.2l0.2 0.2c2.3-0.2 4.5-0.6 6.8-0.7 7.9-0.5 15.9-0.3 23.8-0.2 6.2 0.1 12.3 1.1 18.5 0.9 8.6-0.3 15.1 4 20.2 11.3 5.6 8 6.3 17.5 4 26.7 -3.4 13.7-12.2 21.5-24.2 24.8 -7.9 2.1-15.9 4-23.9 5.6 -8.1 1.7-16.2 3.4-24.4 4.4 -1.9 0.3-3.9 0.2-5.8 0.4 -0.2 0-0.4 0.2-0.6 0.2 -11 1.5-38.7 3.5-59.7 4.7 -4.9 0.4-9.9 1.1-14.8 1.4C853.9 567.6 851.2 567.5 848.6 567.3z"/><path d="M865.1 650.3l-6.8-80c5.2-0.3 10.3-0.6 15.4-0.3 8.1 0.4 16.2 1.1 24.3 1.8 0.8 0.1 1.6 0.1 2.4 0.2 22.2 1.7 52.3-1.2 52.3-1.2l0.2 0.2c2.3-0.2 4.5-0.6 6.8-0.7 7.9-0.5 15.9-0.3 23.8-0.2 6.2 0.1 12.3 1.1 18.5 0.9 8.6-0.3 15.1 4 20.2 11.3 5.6 8 6.3 17.5 4 26.7 -3.4 13.7-12.2 21.5-24.2 24.8 -7.9 2.1-15.9 4-23.9 5.6 -8.1 1.7-16.2 3.4-24.4 4.4 -1.9 0.3-3.9 0.2-5.8 0.4 -0.2 0-0.4 0.2-0.6 0.2 -11 1.5-38.7 3.5-59.7 4.7 -4.9 0.4-9.9 1.1-14.8 1.4C870.3 650.6 867.7 650.5 865.1 650.3z"/><path d="M989 424.2c-4.2-7.8-10.2-12.8-18.8-13.4 -6.1-0.4-12.1-2.1-18.3-2.9 -7.9-1-15.8-2-23.7-2.4 -2.3-0.1-4.5 0-6.9 0l-0.1-0.2c0 0-30.3-0.4-52.2-4.5 -0.8-0.1-1.6-0.3-2.4-0.4 -8-1.5-15.9-3.1-24-4.4 -5.1-0.8-10.2-1.1-15.4-1.4 0 0-25.5-1.2-30.2 31.6 -5.7 39.3 13.9 45.8 24.2 49.6 1.4 0.5 2.8 0.1 4-0.9v0c2.6 0.4 5.2 0.8 7.8 0.9 4.9 0.2 9.9 0.1 14.9 0.2 21 1 48.8 2.1 59.8 1.8 0.2 0 0.4-0.2 0.6-0.2 1.9 0.1 3.8 0.3 5.8 0.3 8.2-0.1 16.5-0.9 24.7-1.7 8.2-0.8 16.3-1.8 24.4-3 12.3-2 21.9-8.7 26.7-22C993.3 442.2 993.7 432.7 989 424.2z"/><path d="M1019.6 697.6c-4.4 4-9.7 6.2-15.3 8 -8.2 2.7-16.3 6.2-24.8 8.3 -10.2 2.5-20.8 4-31.4 6 0-0.6 0-1 0-1.4 -1.2 0.4-2.8 1-4.4 1.5 -0.4 0.1-0.3 0.6-0.7 0.6 -2.5 0.6-4.9 1.1-7.4 1.7 -0.2 0-0.3 0.1-0.4 0.1 -0.2 0-0.5 0.1-0.7 0.1 -8.3 1.9-16.7 3.9-25.1 5.7 -4.2 0.9-8.5 1.2-13.4 1.9 -0.1-0.4-0.2-0.8-0.2-1.1 -1.6 0.3-3 0.5-4.4 0.7 -0.8 0.5-1.9 0.8-3.6 0.7 0 0 0 0 0 0 -3.1 0.6-5.6 1-6.6 1.3 -0.4 0.1-1.1 0.3-1.9 0.6 0 0-28.3 0.4-35.6-29.5 -5-20.5 13.2-34.9 20.2-36.9 1.8-0.5 8.7-1.1 10.5 2.2 11.7-2.6 18.9-0.9 31.2-1.9 18.5-1.5 36.7-4.1 54.7-7.5 11.7-2.3 23.8-2.9 35.9-3.7 7.5-0.6 15 1.8 21.6 9.1C1028.5 676 1025.8 691.9 1019.6 697.6z"/><polygon points="969 298.6 967.1 303.5 971.6 303.5 "/><polygon points="958.5 332.2 961.1 332.2 960.4 324.6 "/><path d="M1002.3 306.2c0 0 3.9 0.5 2.4-4.4 0 0-0.4-3.5-5.4-4.4h-3.9l2.8 8.9H1002.3z"/><path d="M982.6 229.9l-37 55.7 -13.4-26.2 -56.7 91.2h181L982.6 229.9zM1002.3 293.1c11.7 2.9 12.8 9.7 12.8 9.7 2.6 9.2-9.1 9.8-9.1 9.8h-16.7l-4.3-19.5C997 292.5 1002.3 293.1 1002.3 293.1zM974.3 293l13.2 19.5h-11.1l-2.1-3.8h-9.4l-2.2 3.8h-8.7l10.5-19.5H974.3zM922.5 293.9c0 0 0.3-0.8 1.9-0.8h10.1l1.7 8.1 6.5-8.1c0 0 0.1 0.1 0.8 0h10.6l-2.4 19.5h-10.4l2.2-10.6 -8.2 10.6h-5.9l-2.1-10.8 -3.6 10.8h-9.7L922.5 293.9zM936 341.9h-4.2l-0.2-5.2c-1.3 2-7.1 4.6-7.1 4.6 -12.8 4.3-19.8-0.3-19.8-0.3 -5.9-4.6-1.1-12.4-1.1-12.4 7.5-11.2 22.7-12 22.7-12 10.6-0.4 14.4 4 14.4 4l-6.8 5.3c-1.3-2.3-5.7-2.9-5.7-2.9 -10.1 0.4-11.6 5.2-11.6 5.2 -3.5 6.2 2.8 5.7 2.8 5.7 7.1 0.1 7-2.6 7-2.6h-4.2l1.3-3h16L936 341.9zM940.2 341.6l5.8-24.5h4.7l-3.9 24.5H940.2zM961.6 341.6l0.1-4.5h-4.3l-1.1 4.5h-6.3l7.3-24.6h6.9l5.1 24.6H961.6zM990.7 341.6l-10.6-12.3 1.4 12.3h-8.9l-1.9-24.9h7.4l8.5 9.8 -2-9.8h6.2c0 0 0.9-0.1 1.6 2.3l6.7 22.6H990.7zM1005 322.8h-8.9l-1.9-6.1h27l3.5 6.2h-8.6l10 18.6h-12.8L1005 322.8z"/></svg>