<?xml version="1.0" encoding="utf-8"?>
<!-- Generator: Adobe Illustrator 19.0.0, SVG Export Plug-In . SVG Version: 6.00 Build 0)  -->
<svg version="1.1" id="Layer_1" xmlns="http://www.w3.org/2000/svg" xmlns:xlink="http://www.w3.org/1999/xlink" x="0px" y="0px"
	 viewBox="0 0 800 600" enable-background="new 0 0 800 600" xml:space="preserve">
<path fill="#DAB87F" d="M317.8,323.1c-0.9-0.8-1.8-1.1-3-1.1c-7,0.1-14.1,0.2-21.1,0.2c-6.1-0.5-6.2-0.5-6.1,5.8
	c0,2.2,0.2,4.4,0.2,6.5c0,11.5,0,23-0.1,34.6c0,3.3,1.4,4.1,4.1,3.2c0.6,0,1.2,0,1.8,0c10.2,1.2,20.5,0.4,30.8,0.8
	c3.2,0.1,6.4,0,9.6,0.2c2.7,0.2,3.5-0.7,3.4-3.7c-0.3-17.7-0.3-35.4-0.4-53.1c0-5.3,3.4-7.5,8.1-6.1c2.7,0.8,2.5,2.6,2.5,4.7
	c0,19.8,0,39.5,0,59.3c0,10.9-0.1,10.8-10.3,10.8c-19.2-0.1-38.3-0.2-57.5-0.2c-3.1,0-4.3-0.6-4.3-4.3c0.1-21.8,0-43.6-0.3-65.4
	c-0.1-4,1.3-5.2,4.8-5.1c16.4,0.2,32.8,0.4,49.1,0.5c2.5,0,3,1.2,3,3.5c0,16.2,0.2,32.4,0.3,48.6c0,3.3-1.2,4.8-4.5,4.8
	c-10.5-0.2-21.1-0.2-31.6-0.1c-3,0-3.8-1.1-3.8-4.1c0-10.6,0-21.2-0.3-31.8c-0.1-3.9,1.3-4.9,4.6-4.8c6.9,0.1,13.9,0.1,20.8,0.1
	c0.5,0.4,0.9,0.7,1.4,1.1c1.4,7,0.9,10-6.7,10.3c-1.7,0.1-3.3,0.3-5.1-0.2c-2.2-0.6-3.7-0.1-3.6,3.1c0.2,3.8,0.1,7.7,0.1,11.5
	c0,2.3,0.9,3.2,3,3.2c4.2-0.1,8.3,0,12.5,0c1.4,0,2.6-0.2,2.4-2.1c-0.8-10,0.7-20.1-0.6-30.2C320.1,322.7,318.9,322.9,317.8,323.1z"
	/>
<path fill="#DAB87F" d="M383.2,243.7c0-23.3,0-46.5,0-69.8c0-7.5,0.4-8,7.4-8.1c19.1-0.4,38.3,0.2,57.4-0.6c1.9-0.1,4.3-0.7,5,2.4
	c-0.9,16.1-0.4,32.3-0.6,48.5c0,2.5-0.2,5,0.1,7.5c0.3,2.6-0.6,4.2-2.8,5c-15.4,0-30.7,0-46.1,0.1c-3,0-4.2-1-4.1-4.4
	c0.2-11,0.1-22.1,0-33.1c0-4.8,1.2-6.2,5.9-6.2c8.2,0,16.3,0,24.5-0.1c8.1,0,8.1-0.1,8.8,8.4c-0.2,0.2-0.2,0.5,0,0.7
	c0,1.5,0,3.1,0,4.6c-0.5,2.6-0.3,5.2-0.1,7.8c0,0.6-0.1,1.3-0.1,1.9c-0.2,0.3-0.2,0.5,0,0.8c0,0.9,0,1.8,0,2.7
	c-0.1,0.3-0.2,0.6-0.3,0.9c-2.7,2.6-5.6,3.9-9.1,1.7c-0.9-2-0.4-4-0.5-6.1c-0.2-4.3,0.8-8.7-0.5-13c-5.6-0.9-11.3,0.1-16.9-0.3
	c-1.8-0.1-1.9,1.1-1.9,2.6c0,5.9,0,11.8-0.2,17.7c-0.1,2.4,0.8,3.1,2.9,3c9-0.1,18-0.2,27-0.2c1.3,0.1,3.3,1.4,3.4-1.5
	c0.1-12.4,0-24.7,0.1-37.1c0-2.1-1-2.5-2.6-2c-14.7,0-29.4,0.1-44-0.1c-2.8,0-2.7,1.6-2.7,3.6c0,17.2,0,34.4,0,51.6
	c0,1.1-0.4,2.4,0.7,3.3c1.2,1.1,2.7,0.5,4,0.5c16.9-0.1,33.9-0.2,50.8-0.4c3,0,5.7-0.1,5.8,4.3c0,4.1-1.1,5.3-5.8,5.4
	c-20.4,0.1-40.8,0-61.2,0.2C385.2,245.8,384.7,244,383.2,243.7z"/>
<path fill="#DAB87F" d="M281.9,205.1c-6.2-14.6,2.3-34.4,17-38.7c21.9-6.4,47.2,10.3,44.1,40.5c-1.2,12.1-6.4,22.1-14.8,30.3
	c0,0,0,0,0,0c-0.7,0.5-1.4,0.9-2,1.4c-5.3,3.2-10.8,5.7-16.9,6.8c-0.9,0.2-1.9,0.5-2.9,0.4c-2.4-0.4-5.1,0.1-6.8-2.3
	c-1.9-2.7,1.6-3.8,1.6-5.9c2.4-0.9,4.8-2,7.3-2.6c13.8-3.3,20.8-13.2,23.4-27.2c3.4-18.2-8.1-32.3-24.3-29.6
	c-12.1,2-21.1,15.2-13,28.1c2.8,4.5,8.6,6.4,13.1,4.2c4.5-2.2,7-8.8,5.3-13.9c-1.3-4.1-4.6-4.8-7.3-1.5c-2.6,3.1-8.1,3.7-11.2,1.2
	c-0.6-0.5-1.3-1-1.3-2.1c-0.1-3.7,4.4-10.1,8.1-10.9c6.6-1.5,12.3-1.1,17.6,4.9c4.5,5.3,7.2,10.6,5,17.4c-2.5,7.9-6.2,14.9-15,16.5
	c-5.3,1-10.1-0.9-14.9-3C288.5,216,285,210.8,281.9,205.1z"/>
<path fill="#DAB87F" d="M430.8,316.8c-0.9,8,1.6,14.5,6.4,20.7c9.3,12,12.4,30.6,2.6,44.5c-5.5,7.8-12.7,11.3-21.4,10
	c-14.8-2.1-23.4-12.9-26.4-27.4c-1.9-9.2,3.6-16.8,10.2-21.8c6.7-5,14.6-4.9,21.9,0.2c6.6,4.6,9.1,11.1,8.4,19.3
	c-0.5,6.1-6.4,12.9-12.5,13.1c-6,0.2-12.3-4.5-14-11c-0.5-1.9-0.4-3.8,0.2-5.7c1-3.1,2.8-5.8,6.1-5.6c3.6,0.3,4.2,3.6,4.6,6.8
	c0.2,1.4-0.9,3.6,1.2,4c1.7,0.3,2.5-1.7,3.2-3c2-3.6,0.7-7.4-3-8.9c-6.7-2.7-13.5,1.3-14.9,8.8c-1.5,8.1,2.2,15.4,9.2,18.1
	c7.1,2.7,16.2-1.2,19.5-8.4c4-8.5,2.9-16.6-1.6-24.4c-1.9-3.2-4-6.4-6.4-9.3c-7.7-9.2-6.5-19.8-4.5-30.5c0.8-4.1,4.1-3.8,7-3.8
	c2.9-0.1,3.8,2.4,4,4.7C431.1,310.6,430.8,313.7,430.8,316.8z"/>
</svg>
