<svg xmlns="http://www.w3.org/2000/svg" width="50" height="50" viewBox="0 0 50 50"><circle cx="25" cy="25" r="16.9" style="fill:none;stroke-width:6;stroke:#FFF"/><path d="M21.4 16.5c0-0.2 0.3-0.4 0.5-0.3 0.2 0.1 0.3 0.4 0.4 0.6 0 0.2 0.1 0.5 0.2 0.7 0.1 0.2 0.3 0.4 0.4 0.3 0.1-0.1 0.2-0.3 0.2-0.5 0-0.5 0-1.1-0.1-1.6 0-0.3-0.1-0.5 0-0.8 0.1-0.2 0.3-0.5 0.6-0.4 0.3 0.1 0.4 0.5 0.4 0.8 0 0.5 0.1 1 0.1 1.5 0 0.3 0.1 0.7 0.4 0.8 0.3 0.1 0.6-0.2 0.7-0.4 0.1-0.3 0-0.6 0-0.9 -0.1-0.6-0.2-1.3-0.1-2 0-0.2 0-0.4 0.1-0.5 0.1-0.1 0.3-0.2 0.4-0.2 0.2 0.1 0.2 0.3 0.2 0.5 0.1 0.6 0.1 1.2 0.2 1.8 0.6 0.1 1-0.6 1.2-1.1 0.1-0.6 0.1-1.2 0.5-1.7 0.3-0.1 0.7-0.2 0.8 0.1 0.1 0.2 0 0.5-0.1 0.6 -0.2 0.2-0.4 0.3-0.6 0.4 -0.5 0.4-1 1.3-0.5 1.9 0.6 0.8 1.3 0 1.3-0.7 0-0.3 0-0.7 0.2-1 0.2-0.3 0.6-0.5 0.8-0.2 0.3 0.3 0.1 0.7-0.1 1.1l-1.1 1.7c1.1-0.7 2.1-1.7 2.7-2.9 0.4-0.1 0.5 0.5 0.3 0.8 -0.2 0.3-0.6 0.4-0.8 0.7 -0.5 0.4-0.7 1-0.6 1.6 0.6 0.2 1.2-0.3 1.5-0.8 0.3-0.5 0.5-1.1 1-1.5 0.2-0.2 0.4-0.3 0.7-0.2 0.4 0.1 0.4 0.7 0.2 1 -0.2 0.3-0.6 0.5-0.9 0.7 -0.3 0.2-0.6 0.4-0.7 0.8 -0.1 0.3 0 0.7 0.4 0.8 0.3 0.1 0.7-0.1 0.9-0.4 0.2-0.3 0.3-0.6 0.6-0.8 0.3-0.2 0.7-0.3 0.9 0 0.2 0.4-0.2 0.8-0.5 1 -0.5 0.4-1 0.7-1.5 1.1 -0.3 0.2-0.4 0.6 0 0.8 0.2 0.1 0.4 0.1 0.5 0.1 0.5-0.1 0.7-0.4 1.1-0.7 0.4-0.3 0.9-0.4 1.4-0.4 0.1 0 0.3 0 0.3 0.1 0.1 0.1 0 0.2 0 0.3 -0.1 0.1-0.2 0.1-0.3 0.2 -0.4 0.2-0.9 0.3-1.3 0.6 -0.4 0.2-0.9 0.3-1.2 0.7 -0.2 0.2-0.3 0.7-0.1 0.9 0.2 0.3 0.6 0 0.8 0.2 0.1 0.1 0.1 0.4 0 0.5 -0.1 0.1-0.3 0.2-0.5 0.2 -0.4 0-0.8 0.1-1.1 0.3 -0.3 0.3-0.2 0.8 0.2 0.8 0.2 0 0.4 0 0.7-0.1 0.6-0.2 1.3-0.4 1.9-0.7 0.2-0.1 0.4-0.1 0.6-0.1 0.2 0 0.4 0.2 0.4 0.4 0 0.3-0.3 0.4-0.5 0.6 -0.6 0.3-1.3 0.6-2 0.8 -0.4 0.1-0.8 0.2-1.1 0.6 -0.6 0.8 0.9 1 1.4 1.2 0.9 0.3 1.8 0.6 2.7 0.9 0.4 0.1 0.8 0.3 0.8 0.7 0 0.3-0.4 0.6-0.7 0.7 -1.1 0.3-2.3-0.1-3-1 -0.3 0-0.4 0.3-0.3 0.6 0.1 0.2 0.4 0.4 0.6 0.5 0.3 0.1 0.5 0.2 0.7 0.3 0.2 0.2 0.3 0.5 0.1 0.7 -0.1 0.1-0.3 0.1-0.5 0.1 -0.6 0-1.2-0.4-1.5-1 -0.3-0.1-0.6-0.1-0.8 0 -0.3 0.1-0.5 0.3-0.4 0.6 0.1 0.2 0.3 0.4 0.5 0.5 0.9 0.5 1.8 1 2.7 1.5 0.2 0.1 0.5 0.3 0.5 0.6 0 0.3-0.3 0.5-0.6 0.6 -0.8 0.2-1.6-0.1-2.1-0.7 -0.3-0.4-0.5-0.8-0.8-1.1 -0.4-0.3-1-0.2-1.1 0.3 -0.1 0.4 0.4 0.7 0.7 0.9 0.9 0.5 1.7 1.2 2.2 2.1 -0.6 0.3-1.3 0.1-1.9-0.4 -0.5-0.4-0.8-1-1.2-1.6 -0.1-0.2-0.3-0.4-0.5-0.5 -0.2-0.1-0.5 0-0.6 0.2 -0.1 0.2 0.1 0.5 0.3 0.5 -0.1 0.3-0.5 0.4-0.8 0.3 -0.3-0.1-0.6-0.2-0.9-0.3 -0.3 0-0.7 0.1-0.7 0.4 0 0.3 0.3 0.6 0.6 0.7 0.3 0.2 0.6 0.5 0.5 0.8 0 0.1-0.2 0.2-0.2 0.4 -0.2 0.3 0 0.7 0.2 0.9 0.2 0.2 0.6 0.3 0.9 0.4 -0.3 0.2-0.5 0.4-0.7 0.6 -0.2 0.2-0.5 0.4-0.8 0.4 -0.3 0-0.7-0.1-0.8-0.4s0.1-0.7 0.4-0.7c-0.4 0-0.8-0.2-1.1-0.6 -0.2-0.4-0.2-0.9 0-1.2 0.2-0.3 0.5-0.6 0.5-1 -0.1-0.4-0.5-0.5-0.8-0.4 -0.3 0.2-0.5 0.6-0.4 0.9 0 0.2 0.1 0.4 0.1 0.6 0 0.3-0.3 0.6-0.6 0.6 -0.3 0-0.6-0.3-0.6-0.6 -0.3 0.1-0.5 0.5-0.7 0.7 -0.2 0.3-0.7 0.4-0.9 0.1 -0.2-0.3 0.1-0.6 0.4-0.8 0.3-0.1 0.6-0.3 0.8-0.6 0.1-0.4-0.2-0.8-0.6-0.8 -0.4 0-0.7 0.3-0.9 0.6 -0.2 0.3-0.3 0.7-0.4 1.1 -0.2 0.7-0.4 1.3-0.8 1.9 -0.1 0.2-0.3 0.5-0.5 0.6 -0.2 0.2-0.5 0.2-0.8 0.1 -0.3-0.2-0.4-0.7-0.2-1.1 0.2-0.3 0.5-0.6 0.8-0.9 0.7-0.7 1-1.6 1-2.6 -0.7-0.1-1.5 0.4-1.6 1.1 -0.1 0.3-0.1 0.8-0.4 0.9 -0.3 0.1-0.5-0.3-0.5-0.6 0-0.3 0.3-0.5 0.5-0.7 0.2-0.2 0.5-0.4 0.6-0.6 0.2-0.3 0.2-0.7-0.1-0.9 -0.3-0.2-0.7-0.1-0.9 0.2 -0.3-0.1-0.4-0.5-0.2-0.8 0.2-0.3 0.5-0.5 0.6-0.8 0.2-0.3 0.2-0.7-0.1-0.9 -0.9 0.9-1.8 1.8-2.8 2.7 -0.2 0.2-0.5 0.5-0.8 0.5 -0.3 0.1-0.7-0.1-0.7-0.5 0-0.3 0.3-0.5 0.5-0.6 0.3-0.1 0.6-0.1 0.9-0.2 0.3-0.1 0.5-0.4 0.4-0.7 -0.2-0.4-0.8-0.2-1.3-0.3 -0.5-0.1-0.7-0.7-0.6-1.1 0.1-0.5 0.5-0.8 1-1 0.4-0.2 0.9-0.2 1.4-0.2 0.1-0.3 0-0.7-0.3-0.7 -0.3 0-0.5 0.4-0.8 0.5 -0.2 0.1-0.5 0-0.7-0.2 -0.2-0.3 0.1-0.8 0.4-0.9 0.3-0.2 0.8-0.3 1-0.6 -0.5-0.6-1.3-0.8-2-0.5 -0.3 0.1-0.6 0.4-1 0.5 -0.3 0.1-0.8-0.1-0.8-0.4 0-0.4 0.5-0.7 1-0.7 0.4 0 1 0 1.2-0.3 0-0.3-0.4-0.4-0.6-0.5 -0.3 0-0.6 0-0.9 0 -0.3 0-0.6-0.3-0.5-0.6 0-0.2 0.2-0.3 0.4-0.4 0.7-0.4 1.6-0.5 2.4-0.3 0.3 0.1 0.6 0.2 0.8 0 0.2-0.2-0.1-0.5-0.4-0.6 -0.3-0.1-0.6 0-0.8-0.1 -0.4-0.2-0.5-0.7-0.3-1 0.2-0.3 0.7-0.4 1-0.1 -0.2-0.6-1-1-1.6-0.7 -0.2-0.5 0-1.1 0.4-1.3 0.4-0.3 1.1-0.2 1.4 0.2 0.3 0.1 0.4-0.4 0.3-0.6 -0.2-0.2-0.5-0.3-0.8-0.3 -0.3 0-0.6-0.1-0.8-0.4 -0.2-0.4 0.1-0.8 0.5-0.9 0.4-0.1 0.8 0.1 1.2 0.3 0.8 0.4 1.6 1 2.3 1.6 0.1 0.1 0.3 0.2 0.5 0.3 0.2 0.1 0.4 0 0.5-0.1 0.1-0.2 0-0.4-0.2-0.4 0.3 0 0.4-0.2 0.8 0 0.3 0.1 0.7 0.4 0.9 0.1 0.2-0.2 0-0.6 0-0.8C21.4 17.4 21.4 17 21.4 16.5" fill="#FFF"/><path d="M28.4 25c-2.1 0-3.8-1.7-3.8-3.8 0-0.6 0.2-1.2 0.4-1.7 0 0-0.1 0-0.1 0 -3 0-5.5 2.5-5.5 5.5 0 3 2.5 5.5 5.5 5.5 3 0 5.5-2.5 5.5-5.5 0-0.2 0-0.4-0.1-0.6C29.9 24.8 29.2 25 28.4 25z"/></svg>