<?xml version="1.0" encoding="utf-8"?>
<!-- Generator: Adobe Illustrator 16.0.0, SVG Export Plug-In . SVG Version: 6.00 Build 0)  -->
<!DOCTYPE svg PUBLIC "-//W3C//DTD SVG 1.1//EN" "http://www.w3.org/Graphics/SVG/1.1/DTD/svg11.dtd">
<svg version="1.1" id="Layer_1" xmlns="http://www.w3.org/2000/svg" xmlns:xlink="http://www.w3.org/1999/xlink" x="0px" y="0px"
	 width="612px" height="792px" viewBox="0 0 612 792" enable-background="new 0 0 612 792" xml:space="preserve">
<g id="Sea">
	<path fill="#389DC6" d="M834.049,652.126c-21.344-14.188-79.394-13.932-139.901-12.359c1.118,6.454,2.262,12.902,3.445,19.344
		c3.363-1.042,6.868-1.814,10.392-1.885c0.129-0.003,0.251,0.006,0.375,0.011c21.006-5.541,44.344-0.129,65.625-0.011
		c1.604,0.009,2.803,0.641,3.608,1.577c0.665-0.358,1.452-0.584,2.392-0.577c1.622,0.011,3.113,0.151,4.521,0.441
		c0.906-0.886,2.136-1.441,3.479-1.441h7c1.827,0,3.433,1.033,4.306,2.527c10.741-0.396,21.497-0.49,32.185-0.519
		c1.494-0.094,2.996-0.105,4.51-0.009c1.857,0.119,3.168,1.026,3.955,2.238c0.213-0.422,0.367-0.854,0.421-1.305
		C840.82,656.603,835.885,653.39,834.049,652.126z"/>
</g>
<g id="Layer_8">
	<path fill="#473A30" d="M688.859,609.381c1.996,11.151,3.884,22.324,5.827,33.485l0.483,0.078l18.364-28.005L688.859,609.381z"/>
</g>
<g id="Layer_7">
	<path fill="#96796B" d="M729.488,635.483c-1.736,0-19.744-1.468-36.576-2.872c1.101,6.394,2.207,12.785,3.346,19.171h58.252
		l11.82-5.395L729.488,635.483z"/>
	<path fill="#473A30" d="M799.615,625.497c0,0-11.477,6.084-13.773,5.969c-2.294-0.115-26.397,7.231-26.397,7.231v17.834
		c4.917,0.375,9.78,0.668,14.54,0.694c0.852,0.005,1.578,0.197,2.204,0.504l9.23,0.242c0.756-0.463,1.63-0.746,2.565-0.746h7
		c1.14,0,2.188,0.414,3.036,1.076l9.629,0.252l14.376,0.73c3.154-0.024,6.306-0.042,9.449-0.05c1.494-0.094,2.996-0.105,4.51-0.009
		c1.067,0.068,1.944,0.409,2.659,0.904l2.866,0.146V630.09L799.615,625.497z"/>
</g>
<g id="Rocky">
	<path fill="#9E8263" d="M705.385,588.771h-11.478l-5.51,4.361l-2.467,0.425c0.224,1.162,0.442,2.325,0.662,3.488l2.379,0.334
		l-2.063,1.329c0.632,3.373,1.248,6.749,1.854,10.127l1.815,1.514l10.444-0.345l4.019,4.936l12.396-4.362l1.722-1.95l9.066-5.969
		l3.559-5.279l6.542,0.344l14.462-3.214l6.657-2.869L705.385,588.771z"/>
	<path fill="#9F877A" d="M755.313,633.647l12.166-13.085l-19.856-3.443l-14.575,11.249l-18.366-5.51h-7.46l-13.544,4.706
		l-1.543,0.526c1.723,10.002,3.438,20.005,5.261,29.986l3.401,0.143c2.361-0.568,4.771-0.945,7.188-0.994
		c0.124-0.003,0.241,0.006,0.361,0.011c18.879-4.986,39.644-1.117,59.107-0.194l-1.123-20.984L755.313,633.647z"/>
</g>
<g id="Layer_4">
	<path fill="#8EB43E" d="M724.781,600.938l-8.378,4.36l-8.608,1.492l-4.82,3.214l-7.919,5.165l-5.509-2.297l-0.059,0.029
		c0.443,2.503,0.883,5.007,1.317,7.511c0.873,0.073,1.725,0.494,1.725,0.494l16.644-10.33l14.116,0.347l9.758-15.842
		L724.781,600.938z"/>
	<path fill="#83A03D" d="M689.997,615.79l2.417-0.735l2.641,0.229l8.033-5.279l-10.445-2.642H688.5
		C689.006,610.171,689.503,612.979,689.997,615.79z"/>
	<path fill="#83A03D" d="M687.175,600.123l5.354-3.086l-3.329-2.067c0,0-1.285,0.129-2.954,0.241
		C686.558,596.849,686.87,598.485,687.175,600.123z"/>
</g>
<g id="Layer_3">
	<polygon id="XMLID_3_" fill="#334F27" points="760.248,591.868 740.735,595.657 727.651,595.657 724.667,600.247 723.519,609.315 
		712.042,609.315 696.316,616.891 692.529,620.907 704.352,622.858 712.042,622.858 713.534,619.989 719.043,616.891 
		731.897,610.807 738.44,607.938 744.523,605.987 749.918,605.987 755.197,595.657 766.33,595.657 	"/>
</g>
<g id="GreenFront">
	<path id="XMLID_2_" fill="#556F32" d="M841.395,588.771v4.59l-5.165,1.953l3.442,1.949l1.723,12.971l-1.723,4.591l1.723,34.434
		l-3.673-2.641l-12.971-8.034l-7.689-5.738h-9.526l-11.822-0.803h-8.032h-6.084c0,0,0.803,3.1,0.803,4.246
		c0,1.147,3.443,6.887,3.443,6.887l-12.625,1.951l-7.23-7.689l-10.674-3.1l0.344-4.592l8.379-6.887h-6.428l-9.985-3.442
		l-3.099,4.936l4.246,5.396h-5.396l-32.711-4.247l2.41-8.607l11.822-4.248l8.723-4.016l11.021-2.641l9.182-11.707l7.23-0.574
		l17.217-2.641h13.771h26.399l21.004-2.064l2.066-0.229h-0.115V588.771z"/>
</g>
<g id="Layer_11">
	<polygon id="XMLID_19_" fill="#E7E8E7" points="758.066,408.922 748.312,408.922 748.312,419.712 753.017,419.712 758.066,419.712 
			"/>
	<polygon id="XMLID_18_" fill="#EF474D" points="755.771,404.332 755.886,406.627 757.607,406.627 757.607,407.545 757.607,408.922 
		748.77,408.922 748.77,406.856 750.606,406.856 750.606,404.332 754.738,404.332 	"/>
</g>
<g id="Lighthouse">
	<polygon id="XMLID_24_" fill="#ED2624" points="761.198,420.096 761.491,445.74 762.344,593.317 757.177,594.517 748.338,594.499 
		743.292,592.794 745.475,419.339 744.217,417.402 762.696,417.439 	"/>
	<path id="XMLID_15_" fill="#3A2B2B" d="M751.053,443.301l0.021-10.403c0.001-0.484,0.23-0.968,0.459-0.967l2.87,0.006
		c0.229,0,0.459,0.484,0.458,0.969l-0.021,10.403c-0.004,0.483-0.232,0.967-0.463,0.969l-2.869-0.006
		C751.279,444.269,751.05,443.784,751.053,443.301z"/>
</g>
<g id="Lighthouse2">
	<polygon id="XMLID_11_" fill="#EAE1E1" points="761.854,543.089 757.034,543.548 749.918,543.548 744.523,543.204 744.868,526.217 
		749.344,526.677 757.838,526.561 761.28,525.872 	"/>
	<polygon id="XMLID_17_" fill="#EAE1E1" points="762.429,576.145 756.805,576.488 748.655,576.488 743.834,575.915 744.179,559.503 
		747.393,559.847 752.328,559.847 757.951,559.847 762.084,559.503 	"/>
	<polygon id="XMLID_16_" opacity="0.5" fill="#5E5D5D" enable-background="new    " points="743.949,510.493 743.834,506.819 
		762.429,506.819 762.429,510.493 	"/>
</g>
<g id="Grounding">
	<polygon id="XMLID_20_" fill="#556F32" points="746.244,596.001 750.836,591.18 759.444,588.771 770.922,594.509 	"/>
	<polygon id="XMLID_21_" fill="#9E8263" points="742.228,595.082 736.03,591.64 740.162,589.688 743.834,589.918 745.326,592.329 
		748.426,594.509 	"/>
</g>
<g id="Light">
	
		<linearGradient id="XMLID_4_" gradientUnits="userSpaceOnUse" x1="98.083" y1="222.8301" x2="165.6733" y2="222.8301" gradientTransform="matrix(-1.53 0 0 1.53 896.9427 91.0013)">
		<stop  offset="0" style="stop-color:#F7941E"/>
		<stop  offset="0.4677" style="stop-color:#F9ED32"/>
		<stop  offset="1" style="stop-color:#FFFFFF"/>
	</linearGradient>
	<polygon id="XMLID_23_" fill="url(#XMLID_4_)" points="746.418,436.866 643.463,464.413 643.463,399.449 746.876,433.424 	"/>
</g>
</svg>
