<?xml version="1.0" encoding="utf-8"?>
<!-- Generator: Adobe Illustrator 16.0.0, SVG Export Plug-In . SVG Version: 6.00 Build 0)  -->
<!DOCTYPE svg PUBLIC "-//W3C//DTD SVG 1.1//EN" "http://www.w3.org/Graphics/SVG/1.1/DTD/svg11.dtd">
<svg version="1.1" id="Layer_2" xmlns="http://www.w3.org/2000/svg" xmlns:xlink="http://www.w3.org/1999/xlink" x="0px" y="0px"
	 width="200px" height="150px" viewBox="0 0 200 150" enable-background="new 0 0 200 150" xml:space="preserve">
<g>
	<polygon fill="#FFFFFF" points="103.1,81.2 101.2,86.1 105.7,86.1 	"/>
	<polygon fill="#FFFFFF" points="92.6,114.8 95.2,114.8 94.5,107.1 	"/>
	<path fill="#FFFFFF" d="M136.3,88.7c0,0,3.9,0.5,2.4-4.4c0,0-0.4-3.5-5.4-4.4h-3.9l2.8,8.9H136.3z"/>
	<path fill="#FFFFFF" d="M116.7,12.5l-37,55.7L66.3,42L9.6,133.2h181L116.7,12.5z M136.3,75.6c11.7,2.9,12.8,9.7,12.8,9.7
		c2.6,9.2-9.1,9.8-9.1,9.8h-16.7L119,75.5C131.1,75.1,136.3,75.6,136.3,75.6z M108.4,75.5l13.2,19.5h-11.1l-2.1-3.8h-9.4l-2.2,3.8
		H88l10.5-19.5H108.4z M56.6,76.4c0,0,0.3-0.8,1.9-0.8h10.1l1.7,8.1l6.5-8.1c0,0,0.1,0.1,0.8,0h10.6l-2.4,19.5H75.4l2.2-10.6
		l-8.2,10.6h-5.9l-2.1-10.8l-3.6,10.8H48L56.6,76.4z M70.1,124.5h-4.2l-0.2-5.3c-1.3,2-7.1,4.6-7.1,4.6c-12.8,4.3-19.8-0.3-19.8-0.3
		c-5.9-4.6-1.1-12.4-1.1-12.4c7.5-11.2,22.7-12,22.7-12c10.6-0.4,14.4,4,14.4,4l-6.8,5.3c-1.3-2.3-5.7-2.9-5.7-2.9
		c-10.1,0.4-11.6,5.2-11.6,5.2c-3.5,6.2,2.8,5.7,2.8,5.7c7.1,0.1,7-2.6,7-2.6h-4.2l1.3-3h16L70.1,124.5z M74.3,124.2l5.8-24.5h4.7
		l-3.9,24.5H74.3z M95.7,124.2l0.1-4.5h-4.3l-1.1,4.5h-6.3l7.3-24.6h6.9l5.1,24.6H95.7z M124.8,124.2l-10.6-12.3l1.3,12.3h-8.9
		l-1.9-24.9h7.4l8.5,9.8l-2-9.8h6.2c0,0,0.9-0.1,1.6,2.3l6.7,22.6H124.8z M139.1,105.4h-8.9l-1.9-6.1h27l3.5,6.2h-8.6l10,18.6h-12.8
		L139.1,105.4z"/>
</g>
<g>
</g>
<g>
</g>
<g>
</g>
<g>
</g>
<g>
</g>
<g>
</g>
<g>
</g>
<g>
</g>
<g>
</g>
<g>
</g>
<g>
</g>
<g>
</g>
<g>
</g>
<g>
</g>
<g>
</g>
</svg>
