<?xml version="1.0" encoding="utf-8"?>
<!-- Generator: Adobe Illustrator 19.0.0, SVG Export Plug-In . SVG Version: 6.00 Build 0)  -->
<svg version="1.1" id="Layer_1" xmlns="http://www.w3.org/2000/svg" xmlns:xlink="http://www.w3.org/1999/xlink" x="0px" y="0px"
	 viewBox="0 0 100 100" style="enable-background:new 0 0 100 100;" xml:space="preserve">
<style type="text/css">
	.st0{fill:#EB2D37;}
	.st1{fill:#E91E27;}
</style>
<g>
	<g>
		<path class="st0" d="M24,45.3c-4,5.4-5.5,11.5-5.8,18.1c-0.2-1-0.4-1.9-0.5-2.9c-0.2-5.8,1.2-11.4,2.8-16.9c0.1-0.5,0.3-1,0.4-1.5
			c-0.2-0.2-0.3-0.3-0.5-0.3c-1-0.2-2.4,0.6-2.6-0.9c-0.1-0.5,1.2-1.3,1.9-1.9c0.8-0.6,1.7-1.1,2.9-1.8c-3.7-0.7-6.7,0.3-9.8,1.3
			c-0.1-0.2-0.2-0.4-0.3-0.6c0.6-0.3,1.2-0.8,1.8-1c3-0.7,6-1.6,9-2c8.7-1.4,17.4-2.7,25.6-3.9c-3.9-0.3-8.3-0.6-12.8-0.9
			c-0.5,0-0.9-0.4-1.8-0.8c4-0.3,7.5-0.3,11-0.7c7.1-0.8,14.2-1.7,21.3-2.7c1.4-0.2,3-0.7,4.2-1.6s2-2.3,3-3.5
			c1.4,1.3,1.6,2.3,0.8,4.2c-0.5,1.2-0.9,2.5-1.4,3.7c-0.3,0.7-0.5,1.3,0.4,1.8c0.8,0.4,1.3,0.2,1.8-0.4c1.8-2.1,3.6-4.2,5.4-6.2
			c1-1.1,1.7-1,2.4,0.2c0.2,0.4,0.2,1.1,0,1.4c-2,2-2.3,4.6-2.4,7.5c1.2-1.5,2.4-3.1,3.6-4.6c0.1-0.1-0.2-0.5-0.3-0.7
			c-0.1-0.1-0.3-0.1-0.5-0.2c0.8-0.6,1.6-1.2,2.5-1.7c0.4-0.2,0.9,0.1,1.4,0.1c-0.2,0.7-0.1,1.6-0.5,2.1c-2.6,4-5.5,7.8-8,11.8
			c-2.6,4.3-5,8.8-5.7,13.9c-0.3,2.2-0.3,4.6,0,6.8c0.8,5.9,1.8,11.7,2.7,17.6c0.1,0.8-0.1,1.2-0.9,1.1c-2.2-0.1-4.4-0.1-6.6-0.4
			c-10.4-1.6-20.7-2.5-31.2-1.8c-2.3,0.1-4.6,0.3-6.9,0.6c-2.2,0.3-4.2-0.3-6-1.5c-1.7-1.2-2.7-2.8-2.6-4.9c0.3-4.3,0.5-8.7,0.9-13
			C23.1,53.8,23.6,49.5,24,45.3z M49.6,64c0.2,0.2,0.4,0.4,0.7,0.7c0.1,2.6,0.1,5.1,0.2,7.7c0,0.9,0.4,1.7,1.4,1.5
			c0.4-0.1,0.9-1,0.9-1.6c0.1-2.6,0-5.3,0.1-8c0-0.9-0.4-1.4-1.2-1.9c-1.5-0.9-2.9-2-4.4-2.9c-1.1-0.6-1.4-1.4-1.3-2.6
			c0.1-2.3,0-4.6,0-6.9c0-0.8-0.2-1.5-1.1-1.5c-1,0-1.1,0.7-1.1,1.5c0,2.9-0.1,5.8,0,8.8c0,0.6,0.6,1.4,1.1,1.8
			C46.3,61.9,48,62.9,49.6,64z M49.6,49.7c0.2,0.2,0.4,0.4,0.6,0.6c0.1,2.7,0.1,5.5,0.3,8.2c0,0.6,0.7,1.6,1.2,1.7
			c1,0.1,1.1-0.8,1.1-1.7c0-2.7,0-5.5,0-8.2c0-1-0.3-1.6-1.2-2.1c-1.4-0.9-2.8-1.9-4.2-2.7c-1.1-0.6-1.6-1.4-1.5-2.8
			c0.1-2.1,0.1-4.3,0-6.4c0-0.5-0.7-1.3-1.1-1.4c-0.9-0.2-1.1,0.7-1.1,1.4c0,2.6,0.1,5.1,0,7.7c0,1.2,0.4,1.9,1.4,2.5
			C46.6,47.6,48.1,48.7,49.6,49.7z M69,64.4c-2.6-1.7-4.5-1.8-6.3-0.3c-1.8,1.4-2.5,3.9-1.7,6c0.9,2.3,4.1,4.3,6.6,4.1
			c2.7-0.3,4.9-2.6,5.4-5.4c0.3-2-0.1-4-1.4-5.5c-1.9-2.2-3.4-4.5-2.8-7.6c0-0.1,0-0.2,0-0.3c-0.4-0.4-0.8-0.8-1.2-1.1
			c-0.3,0.4-0.9,0.7-0.9,1.1c-0.1,2.6-0.5,5.3,1.8,7.4c0.4,0.3,0.6,0.9,0.9,1.3C69.2,64.2,69.1,64.3,69,64.4z M28.1,40
			c-0.2-0.1-0.3-0.3-0.5-0.4c1.5-2.4,3.3-3.1,5.8-2.1c3.8,1.5,5,6,2.4,9.5c-1.7,2.3-4.1,3.4-6.9,3.4c-1,0-1.3,0.6-1.2,1.3
			c0.1,0.3,0.8,0.8,1.2,0.8c4.3,0.4,8.4-2.4,10-6.8c1.5-4.2-0.6-8.8-4.8-10.4c-3.7-1.4-7.7,0.5-9,4.2c-1.2,3.3,0.9,6.8,4.3,7.5
			c2.6,0.5,5.8-2.1,5.6-4.7c-0.1-1.6-0.9-2.9-2.4-3.5C30.8,37.9,29.3,38.6,28.1,40z M35.2,61.5c-0.4-0.1-0.8-0.4-1.2-0.4
			c-5.1-0.5-5.1-0.5-5.1,4.6c0,1.1,0,2.1,0,3.2c0,0.9,0.3,1.3,1.2,1.3c2.3,0,4.6,0,6.9,0c1,0,1.4-0.4,1.4-1.4c0-3.2-0.1-6.4,0-9.6
			c0-1.2-0.5-1.5-1.6-1.5c-3.5,0-7.1,0-10.6,0c-1.1,0-1.5,0.3-1.5,1.5c0.1,4.4,0,8.9,0,13.3c0,1.1,0.3,1.6,1.5,1.6
			c4.9,0,9.7,0,14.6,0c1,0,1.4-0.4,1.4-1.4c0-4.5,0-9,0-13.5c0-0.8-0.1-1.8-1.1-1.8c-1.1,0-1.4,0.9-1.4,1.8c0,0.5,0,1.1,0,1.6
			c0,3.1,0,6.2,0,9.3c0,1.1-0.2,1.6-1.4,1.6c-3.3-0.1-6.6,0-9.8,0c-0.7,0-1.2-0.1-1.2-1c0-3.2,0-6.4,0-9.6c0-0.8,0.3-1.1,1.1-1.1
			c2.2,0,4.4,0,6.6,0c1.1,0,1.1,0.7,0.9,1.5C35.6,61.5,35.4,61.5,35.2,61.5z M64.5,34.7c-2.1,0-4.3,0-6.4,0c-2.3,0-2.4,0-2.4,2.3
			c0,3.4,0,6.7,0,10.1c0,1-0.1,2,0.1,2.9c0.1,0.5,0.8,1,1.2,1.4c0.4-0.5,0.8-1,1.1-1.6c0.2-0.5,0-1,0-1.6c0-3.2,0-6.4,0-9.6
			c0-1.2,0.2-1.8,1.6-1.7c3.2,0.1,6.4,0.1,9.6,0c1.4,0,1.7,0.5,1.6,1.7c-0.1,1.9,0,3.9,0,5.8c0,4.2,0,4.2-4.1,4.2
			c-1.5,0-3-0.1-4.5-0.1c-0.1-1.6-0.3-3.1-0.3-4.7c0-3.2-0.8-3.1,3.1-3.1c0.3,0,0.6-0.1,0.8,0c0.3,0.2,0.8,0.5,0.9,0.8
			c0.1,1.1,0.2,2.4-0.2,3.4c-0.1,0.4-1.6,0.2-2.4,0.4c-0.6,0.2-1.5,0.6-1.5,1c-0.1,1,0.8,1.2,1.7,1.2c1.2,0,2.3,0,3.5,0
			c1,0,1.4-0.4,1.4-1.4c0-2-0.1-4.1,0-6.1c0-1.1-0.4-1.6-1.5-1.5c-2.1,0.1-4.3,0.1-6.4,0c-1.1,0-1.6,0.3-1.6,1.5
			c0.1,3.2,0,6.4,0,9.6c0,1,0.3,1.5,1.4,1.5c3.6,0,7.3,0,10.9,0c0.9,0,1.3-0.3,1.3-1.2c0-4.6,0-9.2,0-13.8c0-1.1-0.4-1.3-1.4-1.3
			C69.2,34.8,66.8,34.7,64.5,34.7z M58.1,68.4c0-1.3,0-2.6,0-4c0-0.9-0.1-1.8-1.1-1.7c-0.4,0-1.1,0.9-1.1,1.4
			c-0.1,2.8-0.1,5.6,0,8.4c0,0.5,0.8,0.9,1.3,1.3c0.3-0.4,0.9-0.9,0.9-1.3C58.1,71.2,58.1,69.8,58.1,68.4z"/>
		<path class="st1" d="M35.8,61.5c0,1.1,0.1,2.3,0.1,3.4c0,0.9,0,2.6-0.3,2.7c-1.2,0.4-2.6,0.2-3.9,0.2c-0.2,0-0.5-0.4-0.6-0.7
			c-0.1-0.4,0-0.9,0-1.3c0-2.1,0-2.1,2.1-2.2c1.9-0.1,1.9-0.1,2-2.1C35.4,61.5,35.6,61.5,35.8,61.5z"/>
		<path class="st1" d="M49.6,49.7c0.2,0.2,0.4,0.4,0.6,0.6C50,50.1,49.8,49.9,49.6,49.7z"/>
		<path class="st1" d="M49.6,64c0.2,0.2,0.4,0.4,0.7,0.7C50,64.5,49.8,64.3,49.6,64z"/>
		<path class="st0" d="M28.1,40c0.1,0.4,0.1,1.2,0.3,1.2c0.6,0.1,1.3,0.1,1.7-0.1c1.1-0.6,1.9-0.5,2.4,0.6c0.5,1-0.3,2.4-1.4,2.8
			c-1.6,0.6-3.6-0.4-3.9-2.2c-0.1-0.9,0.2-1.8,0.4-2.7C27.8,39.7,28,39.8,28.1,40z"/>
		<path class="st0" d="M64.2,66.5c-0.3,2.6,0.4,3.9,2.4,4c2,0.2,3.4-1.4,3.4-3.7c0-0.5-0.1-1-0.2-1.6c0.1-0.1,0.2-0.2,0.3-0.2
			c1.2,1.6,1,3.3,0.2,4.9c-1,1.9-3.4,2.4-5.5,1.1c-2.1-1.3-2.4-2.8-0.9-5C64,66.3,64.1,66.4,64.2,66.5z"/>
		<path class="st0" d="M63.9,66.2c0.9-1.3,2.1-1.2,3.1-0.3c0.4,0.3,0.6,1.2,0.6,1.8c0,0.2-0.6,0.5-0.9,0.7c-0.2-0.2-0.5-0.5-0.5-0.7
			c0-1.8-0.9-1.6-2-1.1C64.1,66.4,64,66.3,63.9,66.2z"/>
		<path class="st0" d="M69.7,65.3c-0.3-0.3-0.5-0.6-0.8-0.9c0.1-0.1,0.3-0.3,0.4-0.4c0.2,0.3,0.4,0.7,0.6,1
			C69.9,65.1,69.8,65.2,69.7,65.3z"/>
	</g>
</g>
</svg>
