<svg xmlns="http://www.w3.org/2000/svg" width="1920" height="1080" viewBox="0 0 1920 1080"><style>.a{fill:#74BAAD;}</style><path d="M1595.7 408.1c0 1.6-1.3 2.8-2.8 2.8H329.6c-1.6 0-2.8-1.3-2.8-2.8v-7.8c0-1.6 1.3-2.8 2.8-2.8h1263.3c1.6 0 2.8 1.3 2.8 2.8V408.1z" class="a"/><path d="M499.4 405.1l0-1.8c0.2-3.5-4.7-3.6-13.6-5.7 -16.5-6-17-7.6-15.1-18 2-10.5 12.8-64.2 17.4-82.9 4.6-18.7 10.2-31.9 8.5-48.9 -1.6-17.1-5.5-49.8-5.5-49.8h-30.8 -0.1 -30.8c0 0-3.9 32.8-5.5 49.8 -1.6 17.1 3.9 30.2 8.5 48.9s15.4 72.4 17.4 82.9c2 10.5 1.5 12-15.1 18 -8.8 2.1-13.8 2.2-13.6 5.7l0 1.8c0 0-3.1 4.6 39.1 6.1v0c0 0 0 0 0.1 0 0 0 0 0 0.1 0v0C502.5 409.6 499.4 405.1 499.4 405.1z" class="a"/><path d="M1553.8 399.9l0-1c0.2-1.9-4.7-2-13.6-3.2 -16.5-3.3-17-4.2-15.1-10 2-5.8 12.8-35.4 17.4-45.8 4.6-10.3 10.2-17.6 8.5-27s-5.5-27.5-5.5-27.5h-30.8 -0.1 -30.8c0 0-3.9 18.1-5.5 27.5s3.9 16.7 8.5 27 15.4 40 17.4 45.8c2 5.8 1.5 6.6-15.1 10 -8.8 1.2-13.8 1.2-13.6 3.2l0 1c0 0-3.1 2.5 39.1 3.3v0c0 0 0 0 0.1 0 0 0 0 0 0.1 0v0C1556.9 402.5 1553.8 399.9 1553.8 399.9z" class="a"/><path d="M397.9 400.7l0-1c0.1-2-2.7-2-7.6-3.2 -9.3-3.4-9.5-4.2-8.4-10.1 1.1-5.9 7.2-35.9 9.7-46.4 2.6-10.5 5.7-17.9 4.8-27.4 -0.9-9.6-3.1-27.9-3.1-27.9h-17.2 -0.1 -17.2c0 0-2.2 18.3-3.1 27.9 -0.9 9.6 2.2 16.9 4.8 27.4 2.6 10.5 8.6 40.6 9.7 46.4 1.1 5.9 0.8 6.7-8.4 10.1 -5 1.2-7.7 1.3-7.6 3.2l0 1c0 0-1.7 2.6 21.9 3.4v0c0 0 0 0 0 0 0 0 0 0 0 0v0C399.7 403.3 397.9 400.7 397.9 400.7z" class="a"/><path d="M675.4 879.8l0-0.6c0.1-1.2-2.7-1.3-7.6-2.1 -9.3-2.2-9.5-2.7-8.4-6.5 1.1-3.8 7.2-23 9.7-29.7 2.6-6.7 5.7-11.4 4.8-17.5 -0.9-6.1-3.1-17.8-3.1-17.8h-17.2 -0.1 -17.2c0 0-2.2 11.7-3.1 17.8 -0.9 6.1 2.2 10.8 4.8 17.5 2.6 6.7 8.6 25.9 9.7 29.7 1.1 3.8 0.8 4.3-8.4 6.5 -5 0.8-7.7 0.8-7.6 2.1l0 0.6c0 0-1.7 1.6 21.9 2.2v0c0 0 0 0 0 0 0 0 0 0 0 0v0C677.1 881.5 675.4 879.8 675.4 879.8z" class="a"/><path d="M1595.7 684.1c0 1.6-1.3 2.8-2.8 2.8H329.6c-1.6 0-2.8-1.3-2.8-2.8v-7.8c0-1.6 1.3-2.8 2.8-2.8h1263.3c1.6 0 2.8 1.3 2.8 2.8V684.1z" class="a"/><path d="M450.4 680l0-1.8c0.2-3.5-4.7-3.6-13.6-5.7 -16.5-6-17-7.6-15.1-18 2-10.5 12.8-64.2 17.4-82.9 4.6-18.7 10.2-31.9 8.5-48.9 -1.6-17.1-5.5-49.8-5.5-49.8h-30.8 -0.1 -30.8c0 0-3.9 32.8-5.5 49.8 -1.6 17.1 3.9 30.2 8.5 48.9s15.4 72.4 17.4 82.9 1.5 12-15.1 18c-8.8 2.1-13.8 2.2-13.6 5.7l0 1.8c0 0-3.1 4.6 39.1 6.1v0c0 0 0 0 0.1 0 0 0 0 0 0.1 0v0C453.5 684.6 450.4 680 450.4 680z" class="a"/><path d="M1553.8 675.9l0-1c0.2-1.9-4.7-2-13.6-3.2 -16.5-3.3-17-4.2-15.1-10 2-5.8 12.8-35.4 17.4-45.8 4.6-10.3 10.2-17.6 8.5-27s-5.5-27.5-5.5-27.5h-30.8 -0.1 -30.8c0 0-3.9 18.1-5.5 27.5s3.9 16.7 8.5 27 15.4 40 17.4 45.8c2 5.8 1.5 6.6-15.1 10 -8.8 1.2-13.8 1.2-13.6 3.2l0 1c0 0-3.1 2.5 39.1 3.3v0c0 0 0 0 0.1 0 0 0 0 0 0.1 0v0C1556.9 678.4 1553.8 675.9 1553.8 675.9z" class="a"/><path d="M549.9 682.3l1 0c2 0 1.9-2.7 3-7.7 3.1-9.4 3.9-9.7 9.8-8.8 5.9 0.9 36.2 6 46.7 8.2 10.6 2.2 18 5.1 27.6 3.9 9.5-1.2 27.8-4 27.8-4l-0.6-17.2 0-0.1 -0.6-17.2c0 0-18.4-1.6-28-2.2 -9.6-0.6-16.8 2.8-27.2 5.7 -10.4 2.9-40.3 10-46.1 11.3s-6.7 1-10.4-8.1c-1.3-4.9-1.5-7.7-3.5-7.5l-1 0c0 0-2.6-1.6-2.7 22h0c0 0 0 0 0 0 0 0 0 0 0 0h0C547.4 684.1 549.9 682.3 549.9 682.3z" class="a"/></svg>