<?xml version="1.0" encoding="utf-8"?>
<!-- Generator: Adobe Illustrator 16.0.0, SVG Export Plug-In . SVG Version: 6.00 Build 0)  -->
<!DOCTYPE svg PUBLIC "-//W3C//DTD SVG 1.1//EN" "http://www.w3.org/Graphics/SVG/1.1/DTD/svg11.dtd">
<svg version="1.1" id="Layer_1" xmlns="http://www.w3.org/2000/svg" xmlns:xlink="http://www.w3.org/1999/xlink" x="0px" y="0px"
	 width="612px" height="792px" viewBox="0 0 612 792" enable-background="new 0 0 612 792" xml:space="preserve">
<g id="Midsection">
</g>
<g id="Front_x5F_midsection">
</g>
<g id="Front">
</g>
<g id="Layer_6">
</g>
<g id="Layer_8">
</g>
<g id="Minar">
</g>
<g id="Layer_7">
</g>
<g id="Layer_9">
	<g>
		<polygon fill="#716561" points="863.058,528.744 860.813,585.686 931.992,584.083 930.068,523.294 		"/>
		<polygon fill="#716561" points="976.75,583.956 940.007,584.083 938.725,541.12 972.902,538.235 		"/>
		<polygon fill="#716561" points="854.914,585.686 828.559,585.686 830.995,549.585 857.223,547.917 		"/>
		<polygon fill="#7E7F87" points="919.743,583.763 871.715,584.789 872.869,539.068 919.358,535.542 		"/>
		<polygon fill="#746966" points="877.358,584.789 877.358,544.391 914.037,542.082 914.87,583.636 		"/>
		<path fill="#7B7D89" d="M908.394,574.209l-0.256-1.154l-1.604-1.412l-2.821-0.191l-1.348,0.256l-1.602-2.437l-2.309-1.09
			l-1.988-0.641l-0.642-0.514l-0.961,0.578l-1.797,0.705l-1.539,0.705l-1.346,1.409l-0.32,2.758l-1.539-1.154l-1.731,0.193
			l-2.117,0.834l-1.219,1.475l-0.127,1.283l-5.835,0.385c0,0-0.258-3.271-0.129-4.746s3.014-7.054,3.014-7.054
			c2.757-3.462,5.452-5.515,7.761-6.798c3.077-1.73,5.321-1.988,5.899-2.18c0.961-0.32,1.795-3.206,1.795-3.206
			s-0.578,2.372,4.745,3.591c0.641,0.129,2.564,0.898,4.038,1.346c3.014,0.834,3.592,1.541,5.709,3.721
			c3.142,3.206,4.296,7.567,4.296,7.567v5.321L908.394,574.209z"/>
		<path fill="#6B5B5A" d="M908.265,574.08l-0.77,2.053c1.412,0.256-0.191-0.449,2.117,0.704l0.641,1.283l0.258,6.027l4.359-0.063
			l-0.448-6.413c0.897-1.603,1.924-1.923,1.924-1.923l-1.924-1.988L908.265,574.08z"/>
		<path fill="#6B5B5A" d="M875.306,575.748l-1.283,1.987c2.438,1.346,2.629,3.27,2.629,3.27v3.655h4.682l0.193-2.372
			c0,0-0.385,1.539,0-1.025c0.384-2.566,2.884-3.592,2.884-3.592l-1.281-1.923H875.306z"/>
		<rect x="857.543" y="510.148" opacity="0.44" fill="#B6BFCF" enable-background="new    " width="6.862" height="8.336"/>
		<rect x="929.684" y="501.685" opacity="0.32" fill="#B6BFCF" enable-background="new    " width="7.501" height="11.862"/>
		<rect x="934.107" y="500.851" fill="#B6BFCF" width="0.705" height="4.488"/>
		<rect x="861.327" y="511.046" fill="#B6BFCF" width="0.705" height="4.489"/>
		<polygon fill="#B6BFCF" points="930.709,501.685 930.709,506.365 931.223,506.044 931.223,501.685 		"/>
		<polygon fill="#B6BFCF" points="858.121,511.174 858.121,515.855 858.633,515.535 858.633,511.174 		"/>
		<polygon fill="#B6BFCF" points="936.608,501.685 936.608,505.659 936.03,505.468 936.03,501.685 		"/>
		<polygon fill="#B6BFCF" points="863.571,511.494 863.571,515.535 863.058,515.278 863.058,511.494 		"/>
		<polygon fill="#B6BFCF" points="932.313,501.107 932.313,505.659 933.018,505.531 933.018,501.107 		"/>
		<polygon fill="#B6BFCF" points="859.659,511.238 859.659,515.791 860.364,515.663 860.364,511.238 		"/>
		<path fill="#636668" d="M937.378,503.286c0-2.756-1.283-4.103-1.283-4.103s-3.333-2.245-5.515,0
			c-2.18,2.244-1.154,4.103-1.154,4.103l-0.512,1.797c5.45-3.976,9.489,0,9.489,0L937.378,503.286z"/>
		<path fill="#636668" d="M864.981,512.328c0-2.757-1.281-4.104-1.281-4.104s-3.336-2.244-5.515,0
			c-2.182,2.244-1.154,4.104-1.154,4.104l-0.514,1.796c5.45-3.976,9.491,0,9.491,0L864.981,512.328z"/>
		<path fill="#636668" d="M864.981,512.713c0-2.758-1.281-4.103-1.281-4.103s-3.336-2.245-5.515,0
			c-2.182,2.243-1.154,4.103-1.154,4.103l-0.514,1.796c5.45-3.976,9.491,0,9.491,0L864.981,512.713z"/>
		<polygon fill="#7E7F87" points="929.234,523.294 864.405,528.616 864.405,518.484 928.529,512.264 		"/>
		<g>
			<path fill="#C6C2BB" d="M993.936,543.813l3.335-5.13v-1.924l-5.003-3.206l-4.682-48.606l3.4-3.206l-0.514-3.526l-3.719-2.565
				l-3.206-30.33l2.758-4.81l0.191-2.438l-3.078-2.885l-0.32-2.565l4.36-6.412l-4.169-6.413c2.887-2.563-3.398-9.811-3.398-9.811
				s-10.26-5.771-14.748,2.565c-4.489,8.335-2.116,10.388-2.116,10.388l-3.206,6.86l4.297,5.579l1.09-0.256l0.641,1.346l-2.115,5.45
				l0.961,4.682l2.117,0.834l2.244,30.459l-2.758,3.078l-0.514,3.848l4.49,2.244l3.397,48.734l-4.681,2.438l0.193,2.563l4.038,3.849
				l3.399,38.988l-147.999,2.757l2.116-31.742l3.848-4.168l-0.191-2.116l-2.887-1.475l3.398-44.887l3.399-2.245v-2.115l-3.079-3.079
				l1.796-28.407l2.885-2.563l0.643-3.078l-2.887-4.36l0.32-2.117l4.682-2.885v-4.681l-1.604-2.245l-0.191-0.962
				c1.924-5.644-1.475-9.17-1.475-9.17s-6.669-7.694-12.824-3.527c-6.157,4.169-5.003,10.453-5.003,10.453l-3.205,3.398l0.447,1.924
				l0.514,2.822l2.116,1.603l1.475,1.475l-0.193,1.924l-3.718,2.886v2.885l2.886,3.848l-2.565,29.498h-2.244l-1.924,1.923v2.565
				l2.885,2.886l-4.487,43.925l-3.527,1.924v3.206l2.564,5.771l-2.564,32.063l186.922-3.527L993.936,543.813z"/>
			<path fill="#C6C2BB" d="M937.827,507.327c0,0,0.128-1.09-0.514-1.668c-0.641-0.576-2.053-0.705-4.681-0.32
				c-1.475,0.192-1.988-0.129-2.629,0.32c-1.604,1.091-1.475,3.207-1.475,3.207l3.463,74.77l9.811-0.064l-3.976-75.667V507.327z"/>
			<path fill="#C6C2BB" d="M862.608,584.147l1.797-69.382c0,0-0.385-0.705-2.438-1.154s-4.296,1.795-4.296,1.795l-2.758,69.768
				l6.733-0.129L862.608,584.147z"/>
			<path fill="#C6C2BB" d="M933.211,498.093h-0.898l0.129-0.448c-0.064-0.064-0.129-0.129-0.193-0.193
				c-0.064-0.128-0.129-0.191-0.129-0.191c0.064-0.193,0.064-0.385,0.129-0.514c0.193-0.256,0.385-0.385,0.385-0.385l0.256-2.181
				l0.193,2.31l0.256,0.256c0.577,0.514-0.256,0.962-0.256,0.962l0.129,0.449V498.093z"/>
			<path fill="#C6C2BB" d="M860.813,507.647h-0.898l0.129-0.449c-0.064-0.063-0.129-0.128-0.193-0.191
				c-0.063-0.129-0.127-0.193-0.127-0.193c0.064-0.191,0.064-0.385,0.127-0.513c0.193-0.257,0.385-0.385,0.385-0.385l0.258-2.181
				l0.191,2.309l0.258,0.257c0.576,0.513-0.258,0.962-0.258,0.962l0.129,0.449V507.647z"/>
			<path fill="#C6C2BB" d="M830.995,429.8l0.32-0.77c-0.063-0.127-0.256-0.256-0.32-0.385c-0.191-0.32-0.256-0.449-0.256-0.449
				c0.129-0.32,0.191-0.705,0.385-0.896c0.449-0.514,0.834-0.705,0.834-0.705l0.961-4.04l-0.127,4.296l0.447,0.576
				c1.027,1.027-0.705,1.668-0.705,1.668l0.193,0.834L830.995,429.8z"/>
			<path fill="#C6C2BB" d="M970.466,408.255l0.193-0.833c-0.129-0.129-0.449-0.258-0.514-0.322c-0.32-0.32-0.385-0.385-0.385-0.385
				c0.064-0.385,0.129-0.832,0.256-1.025c0.385-0.576,0.834-0.834,0.834-0.834l0.32-4.296l0.77,4.36l0.706,0.514
				c1.475,0.834-0.449,1.859-0.449,1.859l0.385,0.834L970.466,408.255z"/>
			<g>
				<path fill="#666770" d="M918.397,513.482c0,0-0.063-0.128-0.192-0.449c-0.064-0.191-0.256-0.385-0.32-0.641
					c-0.193-0.449,0.064-0.77,0.385-1.154s0.833-0.642,0.833-0.642h0.32c0,0,0.256,0,0.577,0.192c0.128,0.064,0.192,0,0.513,0.257
					s0.32,0.962,0.193,1.475c-0.064,0.386-0.193,0.706-0.193,0.706L918.397,513.482z"/>
				<polygon fill="#2F3B4C" points="918.974,510.725 919.23,508.353 919.614,510.725 				"/>
			</g>
			<g>
				<path fill="#666770" d="M911.536,513.867c0,0-0.064-0.128-0.192-0.449c-0.063-0.191-0.257-0.385-0.321-0.641
					c-0.191-0.449,0.064-0.77,0.385-1.154c0.321-0.385,0.833-0.642,0.833-0.642h0.32c0,0,0.258,0,0.578,0.192
					c0.129,0.064,0.191,0,0.514,0.257c0.32,0.257,0.32,0.962,0.191,1.476c-0.064,0.385-0.191,0.705-0.191,0.705L911.536,513.867z"/>
				<polygon fill="#2F3B4C" points="912.177,511.109 912.434,508.738 912.818,511.109 				"/>
			</g>
			<g>
				<path fill="#666770" d="M904.995,514.573c0,0-0.064-0.128-0.193-0.449c-0.063-0.192-0.256-0.385-0.32-0.642
					c-0.191-0.449,0.064-0.77,0.385-1.154s0.834-0.641,0.834-0.641h0.32c0,0,0.256,0,0.578,0.191c0.127,0.064,0.191,0,0.512,0.257
					c0.322,0.257,0.322,0.962,0.193,1.476c-0.064,0.385-0.193,0.705-0.193,0.705L904.995,514.573z"/>
				<polygon fill="#2F3B4C" points="905.571,511.815 905.829,509.442 906.276,511.815 				"/>
			</g>
			<g>
				<path fill="#666770" d="M898.967,515.215c0,0-0.064-0.129-0.191-0.449c-0.064-0.192-0.258-0.385-0.32-0.642
					c-0.193-0.448,0.063-0.77,0.385-1.154c0.32-0.385,0.832-0.642,0.832-0.642h0.322c0,0,0.256,0,0.576,0.192
					c0.129,0.064,0.193,0,0.514,0.257c0.32,0.256,0.32,0.962,0.193,1.475c-0.066,0.385-0.193,0.706-0.193,0.706L898.967,515.215z"/>
				<polygon fill="#2F3B4C" points="899.609,512.457 899.801,510.148 900.25,512.457 				"/>
			</g>
			<g>
				<path fill="#666770" d="M892.427,515.984c0,0-0.064-0.129-0.193-0.449c-0.063-0.192-0.256-0.385-0.32-0.642
					c-0.191-0.448,0.064-0.77,0.385-1.154s0.834-0.642,0.834-0.642h0.32c0,0,0.258,0,0.578,0.193c0.127,0.063,0.193,0,0.512,0.256
					c0.322,0.256,0.322,0.962,0.193,1.475c-0.064,0.385-0.193,0.706-0.193,0.706L892.427,515.984z"/>
				<polygon fill="#2F3B4C" points="893.067,513.227 893.261,510.854 893.71,513.227 				"/>
			</g>
			<g>
				<path fill="#666770" d="M886.016,516.368c0,0-0.066-0.128-0.193-0.448c-0.064-0.192-0.258-0.385-0.32-0.642
					c-0.193-0.448,0.063-0.77,0.385-1.154c0.32-0.385,0.834-0.642,0.834-0.642h0.32c0,0,0.256,0,0.576,0.193
					c0.129,0.063,0.193,0,0.514,0.256c0.32,0.257,0.32,0.962,0.192,1.475c-0.063,0.385-0.192,0.706-0.192,0.706L886.016,516.368z"/>
				<polygon fill="#2F3B4C" points="886.592,513.611 886.848,511.303 887.232,513.611 				"/>
			</g>
			<g>
				<path fill="#666770" d="M879.603,516.882c0,0-0.064-0.129-0.193-0.449c-0.063-0.192-0.256-0.385-0.32-0.642
					c-0.191-0.448,0.064-0.77,0.385-1.154s0.834-0.641,0.834-0.641h0.32c0,0,0.258,0,0.578,0.192c0.127,0.063,0.191,0,0.512,0.257
					c0.321,0.256,0.321,0.961,0.192,1.475c-0.063,0.385-0.192,0.705-0.192,0.705L879.603,516.882z"/>
				<polygon fill="#2F3B4C" points="880.243,514.124 880.437,511.815 880.886,514.124 				"/>
			</g>
			<g>
				<path fill="#666770" d="M873.574,517.458c0,0-0.064-0.128-0.191-0.449c-0.064-0.191-0.258-0.384-0.32-0.641
					c-0.193-0.448,0.063-0.769,0.384-1.153c0.32-0.385,0.833-0.642,0.833-0.642h0.321c0,0,0.256,0,0.576,0.192
					c0.129,0.064,0.193,0,0.514,0.256c0.32,0.257,0.32,0.963,0.191,1.476c-0.064,0.385-0.191,0.705-0.191,0.705L873.574,517.458z"/>
				<polygon fill="#2F3B4C" points="874.151,514.701 874.407,512.393 874.856,514.701 				"/>
			</g>
			<g>
				<path fill="#666770" d="M867.418,517.972c0,0-0.064-0.129-0.192-0.449c-0.063-0.192-0.256-0.385-0.32-0.641
					c-0.192-0.449,0.064-0.77,0.384-1.154c0.32-0.385,0.834-0.642,0.834-0.642h0.32c0,0,0.258,0,0.578,0.192
					c0.129,0.064,0.193,0,0.514,0.257c0.32,0.256,0.32,0.962,0.191,1.474c-0.064,0.385-0.191,0.706-0.191,0.706L867.418,517.972z"/>
				<polygon fill="#2F3B4C" points="868.059,515.215 868.252,512.906 868.701,515.215 				"/>
			</g>
			<g>
				<path fill="#666770" d="M925.13,512.713c0,0-0.063-0.128-0.191-0.449c-0.064-0.191-0.257-0.385-0.32-0.641
					c-0.193-0.449,0.063-0.77,0.385-1.154c0.32-0.385,0.833-0.642,0.833-0.642h0.321c0,0,0.256,0,0.576,0.192
					c0.128,0.064,0.192,0,0.513,0.257s0.32,0.962,0.191,1.475c-0.063,0.385-0.191,0.706-0.191,0.706L925.13,512.713z"/>
				<polygon fill="#2F3B4C" points="925.772,509.955 925.964,507.583 926.413,509.955 				"/>
			</g>
		</g>
	</g>
</g>
</svg>
