<?xml version="1.0" encoding="utf-8"?>
<!-- Generator: Adobe Illustrator 19.0.0, SVG Export Plug-In . SVG Version: 6.00 Build 0)  -->
<svg version="1.1" id="Layer_1" xmlns="http://www.w3.org/2000/svg" xmlns:xlink="http://www.w3.org/1999/xlink" x="0px" y="0px"
	 viewBox="21 3.7 841.9 595.3" enable-background="new 21 3.7 841.9 595.3" xml:space="preserve">
<g id="Layer_8">
</g>
<g>
	<polygon id="XMLID_88_" fill="#171616" stroke="#E7265E" stroke-width="0.1" stroke-miterlimit="10" points="317.4,155.3 
		317.4,153.3 314.4,153.3 313.3,150.8 313.9,149.3 316.4,149.3 317.4,147.1 316.4,146 315.3,145.3 316.5,143.8 317.4,143.8 
		318,140.5 317,139.3 316.9,138 318.8,138 319.9,138 319.9,139.6 319.9,141.1 319.9,143.8 321.4,144.3 321.4,146 320.5,147.3 
		319.9,147.5 320.3,148.8 323.4,149.3 323.9,151.6 322.3,153.3 321,153.1 320.4,153.5 320,155.3 319.4,155.3 319.4,153.3 
		319.9,152.3 322,152.3 322.9,151.5 322.8,150.3 321.4,149.8 319.9,149.8 319.4,148.3 319.3,146.6 320.4,146 320.8,145.3 
		319.4,144.3 319.3,139 318.5,138.8 317.9,144.8 316.9,145 317,150.3 315.4,150.3 314.5,150.8 314.5,152.1 316.8,152.8 	"/>
	<polygon id="XMLID_90_" fill="#171616" stroke="#E7265E" stroke-width="0.1" stroke-miterlimit="10" points="352.4,154.3 
		352.4,152.3 349.4,152.3 348.3,149.8 348.9,148.3 351.4,148.3 352.4,146.1 351.4,145 350.3,144.3 351.5,142.8 352.4,142.8 
		353,139.5 352,138.3 351.9,137 353.8,137 354.9,137 354.9,138.6 354.9,140.1 354.9,142.8 356.4,143.3 356.4,145 355.5,146.3 
		354.9,146.5 355.3,147.8 358.4,148.3 358.9,150.6 357.3,152.3 356,152.1 355.4,152.5 355,154.3 354.4,154.3 354.4,152.3 
		354.9,151.3 357,151.3 357.9,150.5 357.8,149.3 356.4,148.8 354.9,148.8 354.4,147.3 354.3,145.6 355.4,145 355.8,144.3 
		354.4,143.3 354.3,138 353.5,137.8 352.9,143.8 351.9,144 352,149.3 350.4,149.3 349.5,149.8 349.5,151.1 351.8,151.8 	"/>
	<polygon id="XMLID_91_" fill="#171616" stroke="#E7265E" stroke-width="0.1" stroke-miterlimit="10" points="386.9,153.8 
		386.9,151.8 383.9,151.8 382.8,149.3 383.4,147.8 385.9,147.8 386.9,145.6 385.9,144.5 384.8,143.8 386,142.3 386.9,142.3 
		387.5,139 386.5,137.8 386.4,136.5 388.3,136.5 389.4,136.5 389.4,138.1 389.4,139.6 389.4,142.3 390.9,142.8 390.9,144.5 
		390,145.8 389.4,146 389.8,147.3 392.9,147.8 393.4,150.1 391.8,151.8 390.5,151.6 389.9,152 389.5,153.8 388.9,153.8 388.9,151.8 
		389.4,150.8 391.5,150.8 392.4,150 392.3,148.8 390.9,148.3 389.4,148.3 388.9,146.8 388.8,145.1 389.9,144.5 390.3,143.8 
		388.9,142.8 388.8,137.5 388,137.3 387.4,143.3 386.4,143.5 386.5,148.8 384.9,148.8 384,149.3 384,150.6 386.3,151.3 	"/>
	<polygon id="XMLID_92_" fill="#171616" stroke="#E7265E" stroke-width="0.1" stroke-miterlimit="10" points="420.4,153.3 
		420.4,151.3 417.4,151.3 416.3,148.8 416.9,147.3 419.5,147.3 420.4,145.1 419.4,144 418.4,143.3 419.6,141.8 420.4,141.8 
		421.1,138.5 420.1,137.3 420,136 421.8,136 423,136 423,137.6 423,139.1 423,141.8 424.5,142.3 424.5,144 423.6,145.3 422.9,145.5 
		423.3,146.8 426.4,147.3 427,149.6 425.3,151.3 424.1,151.1 423.4,151.5 423.1,153.3 422.5,153.3 422.5,151.3 423,150.3 
		425.1,150.3 426,149.5 425.8,148.3 424.4,147.8 423,147.8 422.4,146.3 422.3,144.6 423.4,144 423.8,143.3 422.4,142.3 422.3,137 
		421.6,136.8 420.9,142.8 419.9,143 420.1,148.3 418.4,148.3 417.6,148.8 417.6,150.1 419.8,150.8 	"/>
	<polygon id="XMLID_93_" fill="#171616" stroke="#E7265E" stroke-width="0.1" stroke-miterlimit="10" points="457.4,153.3 
		457.4,151.3 454.4,151.3 453.3,148.8 453.9,147.3 456.4,147.3 457.4,145.1 456.4,144 455.3,143.3 456.5,141.8 457.4,141.8 
		458,138.5 457,137.3 456.9,136 458.8,136 459.9,136 459.9,137.6 459.9,139.1 459.9,141.8 461.4,142.3 461.4,144 460.5,145.3 
		459.9,145.5 460.3,146.8 463.4,147.3 463.9,149.6 462.3,151.3 461,151.1 460.4,151.5 460,153.3 459.4,153.3 459.4,151.3 
		459.9,150.3 462,150.3 462.9,149.5 462.8,148.3 461.4,147.8 459.9,147.8 459.4,146.3 459.3,144.6 460.4,144 460.8,143.3 
		459.4,142.3 459.3,137 458.5,136.8 457.9,142.8 456.9,143 457,148.3 455.4,148.3 454.5,148.8 454.5,150.1 456.8,150.8 	"/>
	<polygon id="XMLID_94_" fill="#171616" stroke="#E7265E" stroke-width="0.1" stroke-miterlimit="10" points="491.5,152.3 
		491.5,150.3 488.5,150.3 487.4,147.8 488,146.3 490.8,146.3 491.5,144.1 490.5,143 489.5,142.3 490.9,140.8 491.5,140.8 
		492.4,137.5 491.4,136.3 491.3,135 492.9,135 494.3,135 494.3,136.6 494.3,138.1 494.3,140.8 495.8,141.3 495.8,143 494.9,144.3 
		494,144.5 494.4,145.8 497.5,146.3 498.3,148.6 496.4,150.3 495.4,150.1 494.5,150.5 494.4,152.3 493.8,152.3 493.8,150.3 
		494.3,149.3 496.4,149.3 497.3,148.5 496.9,147.3 495.5,146.8 494.3,146.8 493.5,145.3 493.4,143.6 494.5,143 494.9,142.3 
		493.5,141.3 493.4,136 492.9,135.8 492,141.8 491,142 491.4,147.3 489.5,147.3 488.9,147.8 488.9,149.1 490.9,149.8 	"/>
	<polygon id="XMLID_95_" fill="#171616" stroke="#E7265E" stroke-width="0.1" stroke-miterlimit="10" points="526.7,151 
		526.7,149.2 523.7,149.2 522.6,146.5 523.2,145 525.9,145 526.7,142.8 525.7,141.8 524.7,141 526,139.5 526.7,139.5 527.5,136.3 
		526.5,135.2 526.4,133.8 528.1,133.8 529.4,133.8 529.4,135.3 529.4,136.8 529.4,139.5 530.9,140 530.9,141.8 530,143 529.2,143.3 
		529.6,144.7 532.7,145.2 533.4,147.3 531.6,149.2 530.5,148.8 529.7,149.3 529.5,151 528.9,151 528.9,149.2 529.4,148.2 
		531.5,148.2 532.4,147.3 532.1,146.2 530.7,145.5 529.4,145.5 528.7,144.2 528.6,142.3 529.7,141.8 530.1,141 528.7,140 
		528.6,134.8 528,134.5 527.2,140.5 526.2,140.8 526.5,146.2 524.7,146.2 524,146.7 524,147.8 526.1,148.5 	"/>
	<polygon id="XMLID_5_" fill="#191919" stroke="#E52C61" stroke-miterlimit="10" points="173.8,353.8 253.9,347.8 287.4,343.5 
		287.4,335 304.9,332 308.4,326.5 308.4,315.5 343.3,315.5 388.6,315.5 435.6,315.5 442.6,315.5 444.9,315.5 444.9,329 468.9,334.7 
		468.9,340.5 508.4,347 606.9,360.5 606.9,370 606.9,373.5 605.2,370.8 603.9,364 591.9,361.3 559.7,356.8 507.9,349.5 468.3,342.5 
		466.3,336.8 444.3,331.5 441.8,318.5 311.3,317.8 310.8,326.5 308.4,332.3 289.3,337.5 287.4,346.5 253.9,349.8 173.8,355.8 	"/>
	<polygon id="XMLID_6_" fill="#151515" stroke="#E52C61" stroke-miterlimit="10" points="173.8,373.5 211.4,373.5 268.9,373.5 
		260.9,366 264.9,359.5 304.9,359.5 304.9,355 308.4,351 312.4,351 312.4,337.5 308.4,332.3 310.8,326.5 311.3,317.8 324.9,317.8 
		432.4,317.8 432.4,326.5 436.4,328.5 436.4,349 436.4,356.5 482.9,360 485.4,373.5 615.9,376 615.9,382 611.9,382 611.9,378 
		484.4,377 478.9,365.5 435.8,359.3 433.9,349.9 434.8,330.3 430.8,326.8 429.8,320.8 313.9,319.5 313.4,326.8 312.3,331.8 
		314.8,335.3 314.8,349.9 313.9,354 309.4,353.8 306.9,356 306.9,361.8 265.8,361.5 264.3,365.5 272.8,374.8 173.8,376.3 	"/>
	<polygon id="XMLID_1_" fill="#151515" stroke="#E52C61" stroke-miterlimit="10" points="275.6,488.2 277.9,388.8 276.8,377.2 
		276.8,370.2 294.6,369.2 294.6,375.2 287.6,382.8 285.1,383.2 285.9,432.8 285.8,488.8 284.4,488.8 284.3,439.2 283.4,382 
		286.4,380.7 292.9,375.3 293.3,370.5 277.9,371.5 277.9,377.5 279.4,389.3 277.1,488.8 	"/>
	<polygon id="XMLID_7_" fill="#171617" stroke="#E52C61" stroke-miterlimit="10" points="306.9,356 308.8,366 308.8,376 
		308.8,379.8 310.6,379.8 310.6,387 311.6,456.5 311.6,488.8 313.3,488.8 313.3,457.5 312.3,378.7 310.1,377.3 310.1,366 307.9,360 
		323.8,359.7 321.3,366.5 320.4,377.7 319.1,379.7 321.8,488.8 322.8,488.8 322.3,472.8 321.8,443.7 321.4,418.5 320.1,385.8 
		320.1,381.2 321.3,378.8 321.9,374.8 322.4,366.5 325.8,358.3 308.9,358.2 	"/>
	<path id="XMLID_11_" fill="#171617" stroke="#E52C61" stroke-miterlimit="10" d="M341.3,487.5l1.7-70.3c0,0,5.5-13.2,10.5-17.2
		s4.3-5.3,13.3-8s15.3-1.3,15.3-1.3s5.8-1,11.8,2.5s13.8,11,13.8,11s5.3,5.3,5.5,10.3s2,73,2,73l2,1.3l-1.8-75.6c0,0-1.8-6.5-5.3-10
		s-15-11.8-15-11.8l-11.4-2.5h-10.3l-7.4,1.6c0,0-7.8,2-13,6.5s-10.5,17.3-10.5,17.3l-1.2,22l-2.3,49.5L341.3,487.5z"/>
	<polygon id="XMLID_13_" fill="#171617" stroke="#E52C61" stroke-miterlimit="10" points="323.6,332.8 321.6,336.5 319.9,349.9 
		325.8,354.5 325.8,352.5 322.9,349.9 322.9,339.5 325.8,333.2 	"/>
	<polygon id="XMLID_12_" fill="#171617" stroke="#E52C61" stroke-miterlimit="10" points="325.8,328.8 419.3,326.5 416.9,328.8 
		325.8,333.2 	"/>
	<polygon id="XMLID_14_" fill="#171617" stroke="#E52C61" stroke-miterlimit="10" points="325.8,358.3 415.3,358.3 420.9,366.8 
		390.4,366.8 346.6,369.2 322.9,369.2 	"/>
	<path id="XMLID_16_" fill="#171617" stroke="#E52C61" stroke-miterlimit="10" d="M327.6,488.8l2-73c0,0,1.7-16.3,13.7-24
		s20.7-9.8,20.7-9.8s3.2-1.5,8.6-1.5s15.6-0.3,22.4,1.5c6.7,1.8,12.4,3.2,16.9,7s7.2,8.3,9.2,11.3s-2.5-1-2.5-1l-7.7-9.5l-15.9-6.5
		l-22.3-1.3c0,0-6,0.5-7.5,1.2s-11.8,3.8-20.5,9.8S331,416.2,331,416.2l-0.7,17l-0.8,52.7L327.6,488.8z"/>
	<path id="XMLID_17_" fill="#171617" stroke="#E52C61" stroke-miterlimit="10" d="M418.3,329.8l6,5.7v10.8l-4.9,2l-4.4,6.2l2,2.5
		l4.5,8.3v10.8c0,0,3,4.2,2.7,4.5s0,9.8,0,9.8v68.8V487l2.2,2.1l-1-49.9l1-42.7V379l-3-6.8v-6.7l-2.8-7.2l-1.4-3.8l2.2-6l5-1v-7v-6
		l-5-4.7L418.3,329.8L418.3,329.8z"/>
	<polygon id="XMLID_18_" fill="#171617" stroke="#E52C61" stroke-miterlimit="10" points="435.8,359.3 434.3,366.8 434.3,488 
		435.8,488 435.8,367 	"/>
	<polygon id="XMLID_19_" fill="#171617" stroke="#E52C61" stroke-miterlimit="10" points="325.8,334.5 322.9,341 331.3,342 
		379.3,338.3 399.8,339.5 424.3,338.3 418.3,329.8 	"/>
	<path id="XMLID_15_" fill="#171617" stroke="#E52C61" stroke-miterlimit="10" d="M394.3,241l1-19.3l4.5-4.5l1.8-26l-3.1-1.8
		l3.1-3.5v-10.4l3.3-1.3c0,0-2.3-6.3,2.8-12.3s13-9.8,13-9.8s5.3,2,6.8,3s5.8,2.8,8.5,7.5s3.3,15.5,3.3,15.5v6.8l1.8,1.3v3.3
		l-1.5-0.3l1.5,27.5l2,0.8v3.5l-1.3,0.5l1.3,24h-2.5l0.3-7.3l-0.5-15.5l-2.8-42.8c0,0-1-7.8-1.3-12.5s-15.5-14-15.5-14s-2.7,1-6.7,5
		s-8,8.5-7.8,11s-0.5,6.3-0.5,6.3l-2.8,1l-0.5,8.8l-0.2,3.7l0.8,9.6l-1.5,18.9l-3.3,5L394.3,241z"/>
	<polygon id="XMLID_20_" fill="#171617" stroke="#E52C61" stroke-miterlimit="10" points="403.3,185.8 436.3,185 436.3,185.8 
		402,187.1 	"/>
	<polygon id="XMLID_22_" fill="#171617" stroke="#E52C61" stroke-miterlimit="10" points="414.4,192.5 414.4,213 425.6,213 
		425.6,193.2 415.3,192.5 	"/>
	<polygon id="XMLID_21_" fill="#171617" stroke="#E52C61" stroke-miterlimit="10" points="399.4,220.6 438.9,220.6 438.9,218 
		400.1,219.2 	"/>
	<polygon id="XMLID_23_" fill="#171617" stroke="#E52C61" stroke-miterlimit="10" points="411.9,225 426.4,225 426.4,246.7 
		412.6,246.7 	"/>
	<path id="XMLID_25_" fill="#171617" stroke="#E52C61" stroke-miterlimit="10" d="M414.4,178v-9l1.8-1.7h8.2l1.2,3
		c0,0-0.5,5.2,0,5.8c0.5,0.7,0,1.8,0,1.8h-1.7l-0.2-7.2l-1.2-2.3h-5.6l-1.2,1.7l-0.5,7.8L414.4,178L414.4,178z"/>
	<polygon id="XMLID_24_" fill="#171617" stroke="#E52C61" stroke-miterlimit="10" points="411.9,247.5 443.6,246.7 444.9,250.8 
		442.8,248.8 429.4,248.8 418.4,248.8 411.9,248.8 411.9,246.7 	"/>
	<polygon id="XMLID_27_" fill="#171617" stroke="#E52C61" stroke-miterlimit="10" points="418.4,252.7 444.9,252.7 444.9,254 
		426.4,254 418.8,254 	"/>
	<polygon id="XMLID_26_" fill="#171617" stroke="#E52C61" stroke-miterlimit="10" points="446.3,253.3 470.4,253.3 470.4,257.5 
		446.3,257.5 446.3,255.4 469.1,256.5 468.8,254 446.3,254 	"/>
	<polygon id="XMLID_3_" fill="#171616" stroke="#E7265E" stroke-miterlimit="10" points="252.3,162.8 407.4,162 402,164.2 
		258.6,164.2 	"/>
	<polygon id="XMLID_4_" fill="#171616" stroke="#E7265E" stroke-miterlimit="10" points="435.8,162.8 586.9,158.8 586.9,160.8 
		438.9,164.2 	"/>
	<polygon id="XMLID_28_" fill="#171616" stroke="#E7265E" stroke-miterlimit="10" points="446.3,257.5 448.3,294.2 448.3,315.5 
		444.9,315.5 446.3,293.2 444.9,267.2 444.9,257.5 444.9,255.4 	"/>
	<polygon id="XMLID_30_" fill="#171616" stroke="#E7265E" stroke-miterlimit="10" points="442.8,190 463.8,190 463.8,192.5 
		442.8,192.5 442.8,191.3 	"/>
	<polygon id="XMLID_29_" fill="#171616" stroke="#E7265E" stroke-miterlimit="10" points="463.8,194.3 575.4,192.5 575.4,194.3 
		463.8,195.8 	"/>
	<polygon id="XMLID_32_" fill="#171616" stroke="#E7265E" stroke-miterlimit="10" points="444.9,219.2 463.8,219.2 465.3,219.2 
		465.3,223.2 446.3,223.2 	"/>
	<polygon id="XMLID_33_" fill="#171616" stroke="#E7265E" stroke-miterlimit="10" points="466.4,221.2 608.4,220.6 608.4,225 
		466.4,225 466.4,222.7 	"/>
	<polygon id="XMLID_31_" fill="#171616" stroke="#E7265E" stroke-miterlimit="10" points="472.4,255.1 621.7,254 621.7,257.5 
		472.4,257.5 	"/>
	<polygon id="XMLID_35_" fill="#171616" stroke="#E7265E" stroke-miterlimit="10" points="449.4,291 474.4,291 474.4,296.8 
		449.4,296.8 449.4,292.3 	"/>
	<polygon id="XMLID_34_" fill="#171616" stroke="#E7265E" stroke-miterlimit="10" points="475.9,293.9 634.4,292.5 634.4,296.8 
		475.9,297.8 	"/>
	<polygon id="XMLID_36_" fill="#171616" stroke="#E7265E" stroke-miterlimit="10" points="575.4,192.5 602.2,192.5 602.2,194.1 
		575.4,194.3 	"/>
	<polygon id="XMLID_37_" fill="#171616" stroke="#E7265E" stroke-miterlimit="10" points="586.9,158.8 602.2,158.8 602.2,161.5 
		586.9,160.8 	"/>
	<polygon id="XMLID_39_" fill="#171616" stroke="#E7265E" stroke-miterlimit="10" points="460.8,164.2 460.8,190 463.8,190 
		462.3,164.2 	"/>
	<polygon id="XMLID_38_" fill="#171616" stroke="#E7265E" stroke-miterlimit="10" points="463.8,195.8 465.3,219.2 463.8,218 
		462.3,195.8 	"/>
	<polygon id="XMLID_40_" fill="#171616" stroke="#E7265E" stroke-miterlimit="10" points="466.4,226.5 466.4,252.7 468.8,250.8 
		468.8,226.5 	"/>
	<polygon id="XMLID_41_" fill="#171616" stroke="#E7265E" stroke-miterlimit="10" points="467.5,259.8 468.8,291 472.4,291 470,261 
			"/>
	<polygon id="XMLID_42_" fill="#171616" stroke="#E7265E" stroke-miterlimit="10" points="470.4,298.8 474.4,335.9 475.9,335.9 
		473.8,298.8 	"/>
	<polygon id="XMLID_44_" fill="#171616" stroke="#E7265E" stroke-miterlimit="10" points="478.8,334.8 645.9,333 645.9,339.3 
		484.3,339.3 478.8,336.1 	"/>
	<polygon id="XMLID_43_" fill="#171616" stroke="#E7265E" stroke-miterlimit="10" points="305.3,155.5 414.4,155.8 413.8,158.5 
		305.3,157 	"/>
	<polygon id="XMLID_47_" fill="#171616" stroke="#E7265E" stroke-miterlimit="10" points="431.8,155.5 561.2,152.3 594.4,140.5 
		562.6,154.2 432.3,157 	"/>
	<polygon id="XMLID_46_" fill="#171616" stroke="#E7265E" stroke-miterlimit="10" points="397.3,190.3 378.9,190.3 397.3,192.5 	"/>
	<polygon id="XMLID_48_" fill="#171616" stroke="#E7265E" stroke-miterlimit="10" points="249.4,192.5 377.8,191.3 377.8,193.8 
		249.4,194.8 	"/>
	<rect id="XMLID_49_" x="381.3" y="218" fill="#171616" stroke="#E7265E" stroke-miterlimit="10" width="16" height="3.3"/>
	<polygon id="XMLID_50_" fill="#171616" stroke="#E7265E" stroke-miterlimit="10" points="378.9,219.6 232.9,223.2 232.9,226.5 
		379.9,223.2 	"/>
	<polygon id="XMLID_51_" fill="#171616" stroke="#E7265E" stroke-miterlimit="10" points="218.4,257.5 359.1,256.6 359.1,258.6 
		218.4,259.8 	"/>
	<polygon id="XMLID_53_" fill="#171616" stroke="#E7265E" stroke-miterlimit="10" points="206.3,292.5 361,289.8 360.1,292.6 
		206.3,297.2 206.3,294.2 	"/>
	<rect id="XMLID_52_" x="195.3" y="335.9" fill="#171616" stroke="#E7265E" stroke-miterlimit="10" width="89.7" height="4.3"/>
	<polygon id="XMLID_54_" fill="#171616" stroke="#E7265E" stroke-miterlimit="10" points="305.3,155.5 295.8,155.5 253.8,142 
		292.3,157 305.3,157 	"/>
	<polygon id="XMLID_45_" fill="#171616" stroke="#E7265E" stroke-miterlimit="10" points="377.8,164.2 378.9,190.3 381.3,190.3 
		379.4,164.2 	"/>
	<polygon id="XMLID_56_" fill="#171616" stroke="#E7265E" stroke-miterlimit="10" points="377.8,193.8 377.8,219.7 381.3,219.6 
		379.9,192.5 377.8,191.3 	"/>
	<polygon id="XMLID_58_" fill="#171616" stroke="#E7265E" stroke-miterlimit="10" points="252.3,137 246.4,162 244.4,162 246.9,137 
		251.3,137 	"/>
	<polygon id="XMLID_63_" fill="#171616" stroke="#E7265E" stroke-miterlimit="10" points="242.3,192.5 249.4,192.5 249.4,194.8 
		240.8,194.8 240.8,191.3 	"/>
	<rect id="XMLID_65_" x="598.6" y="162" fill="#171616" stroke="#E7265E" stroke-miterlimit="10" width="1.6" height="29.3"/>
	<polygon id="XMLID_64_" fill="#171616" stroke="#E7265E" stroke-miterlimit="10" points="602.2,195.8 602.2,219.2 604.9,219.2 
		603.4,195.8 	"/>
	<polygon id="XMLID_66_" fill="#171616" stroke="#E7265E" stroke-miterlimit="10" points="608.4,226.5 609.9,229.7 615.9,230.7 
		615.9,251.8 614.7,251.8 614.2,232.7 608.4,230.2 606.9,226.5 	"/>
	<polygon id="XMLID_67_" fill="#171616" stroke="#E7265E" stroke-miterlimit="10" points="618.4,259.8 618.4,263.6 626.7,266.8 
		629.2,269.5 629.2,291 627.2,291 627.4,269.5 623.8,267.8 618.4,265.5 615.9,259.8 	"/>
	<polygon id="XMLID_68_" fill="#171616" stroke="#E7265E" stroke-miterlimit="10" points="630.9,298.8 630.9,304.3 638.9,308.3 
		638.9,331.5 641.7,331.5 641.7,307 634.4,303.5 633.4,298.8 	"/>
	<polygon id="XMLID_69_" fill="#171616" stroke="#E7265E" stroke-miterlimit="10" points="644.4,340.8 644.4,379 641.7,379 
		642.9,340.8 	"/>
	<polygon id="XMLID_70_" fill="#171616" stroke="#E7265E" stroke-miterlimit="10" points="617.4,379 644.4,379 644.4,382 
		617.4,380.5 	"/>
	<polygon id="XMLID_72_" fill="#171616" stroke="#E7265E" stroke-miterlimit="10" points="602.2,132.8 602.2,158.8 599.4,158.5 
		600.2,132.8 	"/>
	<polygon id="XMLID_73_" fill="#171616" stroke="#E7265E" stroke-miterlimit="10" points="456.3,373.5 456.3,382 462.3,383.8 
		459.3,488.8 462.3,488.8 462.3,429 463.6,380.5 458.3,380.5 457.6,372.2 	"/>
	<path id="XMLID_74_" fill="#171616" stroke="#E7265E" stroke-miterlimit="10" d="M439.8,373.5h31.8c0.2-0.8-0.7-2-0.7-2
		s-6.5,0.2-19,0.7S439.8,373.5,439.8,373.5z"/>
	<polygon id="XMLID_71_" fill="#171616" stroke="#E7265E" stroke-miterlimit="10" points="470.6,374.5 470.6,488 468.9,486.5 
		468.9,376.8 	"/>
	<polygon id="XMLID_76_" fill="#171616" stroke="#E7265E" stroke-miterlimit="10" points="473.3,384.5 615.9,382 610.2,383.3 
		475.9,386.2 	"/>
	<polygon id="XMLID_75_" fill="#171616" stroke="#E7265E" stroke-miterlimit="10" points="173.8,385.5 275.6,382 275.6,383.8 
		173.8,387.2 	"/>
	<polygon id="XMLID_55_" fill="#171616" stroke="#E7265E" stroke-miterlimit="10" points="240.8,196.5 239.4,200.8 239.4,208.5 
		235.3,221.5 236.9,221.5 240.8,209 240.8,201.5 242.9,196.5 	"/>
	<polygon id="XMLID_59_" fill="#171616" stroke="#E7265E" stroke-miterlimit="10" points="235.3,228.7 225.8,235.5 225.8,255.1 
		227.8,255.1 227.8,236.5 237.3,228.7 	"/>
	<polygon id="XMLID_60_" fill="#171616" stroke="#E7265E" stroke-miterlimit="10" points="221.3,262.5 221.3,268.5 212.4,271.3 
		211.3,291.2 212.4,291.2 214.4,273 222.8,269.5 222.8,262.5 	"/>
	<polygon id="XMLID_62_" fill="#171616" stroke="#E7265E" stroke-miterlimit="10" points="206.3,299.3 206.3,312.3 199.4,315.5 
		197.4,315.5 197.4,333.5 199.4,333.5 199.8,317.8 208.3,313 208.3,299.3 	"/>
	<polygon id="XMLID_77_" fill="#171616" stroke="#E7265E" stroke-miterlimit="10" points="192.4,342 189.9,342 191.3,351.3 
		192.4,349 191.3,343.7 	"/>
	<polygon id="XMLID_61_" fill="#171616" stroke="#E7265E" stroke-miterlimit="10" points="240.8,164.2 242.9,163.1 242.9,188.8 
		240.8,188.8 	"/>
	<polygon id="XMLID_83_" fill="#171616" stroke="#E7265E" stroke-miterlimit="10" points="173.8,355.8 173.8,373.5 175.3,373.5 
		175.3,355.6 	"/>
	<polygon id="XMLID_82_" fill="#171616" stroke="#E7265E" stroke-miterlimit="10" points="173.8,387.2 173.8,486.8 178.6,484.8 
		175.3,389 	"/>
	<polygon id="XMLID_84_" fill="#171616" stroke="#E7265E" stroke-miterlimit="10" points="606.9,384.1 606.9,488.8 610.2,488 
		608.6,384.1 	"/>
	<polygon id="XMLID_86_" fill="#171616" stroke="#E7265E" stroke-miterlimit="10" points="610.2,434.7 645.9,434.7 642.9,438.9 
		610.2,436.8 	"/>
	<polygon id="XMLID_85_" fill="#171616" stroke="#E7265E" stroke-miterlimit="10" points="644.4,382 645.9,488.8 642.9,488.8 
		641.7,382 	"/>
	<polygon id="XMLID_87_" fill="#171616" stroke="#E7265E" stroke-miterlimit="10" points="173.8,376.3 173.8,385.5 175.3,382 
		176.3,376.2 	"/>
	<polygon id="XMLID_89_" fill="#171616" stroke="#E7265E" stroke-width="0.1" stroke-miterlimit="10" points="174.5,488.8 
		642.9,488.8 644.4,493 173.8,493 	"/>
	<polygon id="XMLID_144_" fill="#171617" stroke="#E52C61" stroke-miterlimit="10" points="423.1,359.5 434.3,359.5 432.8,362.2 
		424.3,362.2 	"/>
	<path id="XMLID_97_" fill="#3C3A3A" d="M343.9,486.5l1.7-69.3c0,0,10.9-25,31-24.7s33.3,20.3,33.3,20.3l2.3,73.7L343.9,486.5
		L343.9,486.5z"/>
	<rect id="XMLID_78_" x="245" y="164.2" fill="#DCC490" width="132.6" height="27.2"/>
	<rect id="XMLID_99_" x="463.8" y="163.8" fill="#DCC490" width="133.5" height="28.3"/>
	<rect id="XMLID_98_" x="242.9" y="195.8" fill="#DCC490" width="132.9" height="23.9"/>
	<rect id="XMLID_101_" x="466.9" y="195.8" fill="#DCC490" width="132.9" height="23.9"/>
	<path id="XMLID_102_" fill="#DCC490" d="M372.5,226.5l0.9,22.3c-5,1.1-12,2.2-16,3.5c-12.2,4-26.3,1.4-26.3,1.4l-101.7,1.8v-17.9
		l10.5-9.3l119.2-2L372.5,226.5z"/>
	<polygon id="XMLID_103_" fill="#DCC490" points="471.6,227.7 470.6,250.8 610.2,250.8 610.2,235.7 602.2,228.7 	"/>
	<path id="XMLID_100_" fill="#DCC490" d="M224.8,262.6"/>
	<path id="XMLID_104_" fill="#DCC490" d="M224.8,269.5"/>
	<polygon id="XMLID_105_" fill="#DCC490" points="217,274.7 224.8,269.5 224.8,262.6 357.9,260.8 359.1,287.1 214.1,290.3 	"/>
	<polygon id="XMLID_107_" fill="#DCC490" points="471.3,260.1 474,292.5 625.9,292.5 625.9,268 617.4,256.9 	"/>
	<polygon id="XMLID_106_" fill="#DCC490" points="475.9,299.3 478.8,331.5 636.3,329.8 636.3,311.5 630.9,308.7 629.2,298.8 	"/>
	<polygon id="XMLID_109_" fill="#F8F4BC" points="381.3,167.3 382.8,187.1 397.3,187.1 399.4,182.2 399.4,172.7 402,170.8 
		402,165.5 381.3,165.5 	"/>
	<path id="XMLID_111_" fill="#F8F4BC" d="M438.9,165.5c0,0,3.5,16.3,3.8,18s0,3.6,0,3.6l15.7,1.7l0.2-23.3H438.9z"/>
	<polygon id="XMLID_110_" fill="#F8F4BC" points="380.3,194.1 381.8,218 396.3,218 398.4,193.1 	"/>
	<polygon id="XMLID_112_" fill="#F8F4BC" points="440.9,193.6 461.1,193.6 462.8,218 442.8,217.5 	"/>
	<polygon id="XMLID_114_" fill="#F8F4BC" points="442.8,224.5 464.8,224.5 465.3,252.3 446.6,251.8 442.8,245.5 	"/>
	<path id="XMLID_113_" fill="#F8F4BC" d="M379.5,224.5l14-1l-1.8,27.3h-11.4c0,0,0.5-2.9,0-11.5s0.2-8.5,0.2-8.5L379.5,224.5z"/>
	<polygon id="XMLID_116_" fill="#F8F4BC" points="447.1,258.6 449,287 449.4,289.8 467.5,290.3 466.4,258.6 	"/>
	<polygon id="XMLID_115_" fill="#F8F4BC" points="449.4,298.8 449.4,316.4 446.3,317.4 446.6,326.5 473.3,335.9 468.9,298.8 	"/>
	<polygon id="XMLID_119_" fill="#DCC490" points="485.9,340.8 641.7,340.8 641.7,377.2 618.7,375.8 608.6,374.3 608.6,370.3 
		608.6,361.5 606.9,359 492.3,342 	"/>
	<polygon id="XMLID_117_" fill="#DCC490" points="192.4,343.7 195.3,342 221.3,341 248.9,341 263.9,341 285.1,341 284.9,342.8 
		258.9,346 237.4,348 216.4,349.9 193.4,351.3 193.3,346.6 	"/>
	<polygon id="XMLID_125_" fill="#F3EA97" points="403.4,184.5 436.3,184.1 435.8,177.8 416.3,177.8 412.4,177.8 404.4,178 	"/>
	<polygon id="XMLID_126_" fill="#F3EA97" points="404.8,178 413.3,178 413.3,169.6 415.4,166.6 425.3,166.6 427,169.8 427,175.7 
		427,178 435.8,178 434.6,167.1 420.5,154.3 413.9,160.2 411.3,163.3 408.6,166.5 406.9,168.7 407.1,171.3 406.9,172.7 406.9,175.5 
			"/>
	<polygon id="XMLID_127_" fill="#F3EA97" points="415.6,170.6 417.4,169.3 422.1,169.3 422.9,170.6 422.9,177.8 416.6,178 	"/>
	<polygon id="XMLID_128_" fill="#F3EA97" points="402.8,188.8 402.8,218 412.9,218 412.9,217.3 413.3,192.2 425.9,192.2 427.8,213 
		411.9,213.7 412.9,218 438.9,217.2 436.3,187.1 	"/>
	<path id="XMLID_130_" fill="#F3EA97" d="M399.4,223.1l10.6-0.6v23c0,0-13.5-4.1-14-3.7c-0.5,0.4,1.3-7.8,1.3-7.8L399.4,223.1z"/>
	<polygon id="XMLID_129_" fill="#F3EA97" points="427.4,222.5 428.4,245.5 438.5,245.5 437.5,222.5 	"/>
	<path id="XMLID_131_" fill="#F3EA97" d="M411.9,222.5h15.5H411.9z"/>
	<polygon id="XMLID_132_" fill="#F3EA97" points="427.5,224.5 409.9,224.5 409.9,222.5 427.4,222.5 	"/>
	<polygon id="XMLID_134_" fill="#F6F6C6" points="181.3,486.5 178.6,389 275.6,385.5 273.3,486.8 	"/>
	<polygon id="XMLID_135_" fill="#F6F6C6" points="474.4,389 602.9,387.2 602.9,486.5 473.3,488 	"/>
	
		<rect id="XMLID_136_" x="274.9" y="359.5" opacity="0.28" fill="#7A7A78" enable-background="new    " width="198.4" height="133.5"/>
	<polygon id="XMLID_137_" opacity="0.23" fill="#7A7A78" enable-background="new    " points="473.3,364.7 478.9,365.5 484.4,377 
		611.9,378 611.4,380.5 473.3,385.5 	"/>
	<path id="XMLID_139_" opacity="0.35" fill="#7A7A78" enable-background="new    " d="M173.8,385.5l2.4-9.3l96.5-1.5l-8.5-9.3
		c0,0-1.8-4,1.5-4s9.1-2,9.1-2l0.6,22.5L173.8,385.5z"/>
	<path id="XMLID_140_" opacity="0.45" fill="#7A7A78" enable-background="new    " d="M323.8,342l7.8,0.8l23.8-1.5l19.8-1.3l2.8-0.8
		l10.7,1.3h10.7l4.8-0.2c0,0,3.7,0.2,4.2,0.2s14.7-1.3,14.7-1.3v6.4l-3.8,1.3l-5.5,6.2l1.2,2.8v1.3h-87.3h-1.2l0.2-5.2l-0.8-1.5
		l-2-0.8v-4.5V342L323.8,342L323.8,342z"/>
	<polygon id="XMLID_141_" fill="#BFA675" points="608.6,384.1 615.9,384.1 639.4,384.6 639.4,431.3 611.9,431.3 	"/>
	<polygon id="XMLID_138_" fill="#BFA675" points="611.4,441.5 639.4,441.5 639.4,486.5 611.9,486.8 	"/>
	<path id="XMLID_142_" fill="#BFA675" d="M498.4,429"/>
	<polygon id="XMLID_143_" opacity="0.49" fill="#BFA675" enable-background="new    " points="176.3,357.3 176.3,371.5 265.9,372.5 
		258.9,366.3 264.8,357.3 303.4,357.3 303.4,354.5 306.9,349.9 310.4,349.9 311.8,339.3 307.8,333.5 291.3,338 288.8,346.1 
		286.9,348.3 	"/>
	<polygon id="XMLID_145_" opacity="0.51" fill="#BFA675" enable-background="new    " points="433.5,319.6 432.8,325.2 437.8,328 
		437.4,355.5 482.9,358.3 484.5,359 486.9,372.5 605.7,374.5 602.4,364.7 512.3,351 501.2,349.8 487.3,346.8 473.3,344.5 
		467.4,342.9 464.9,337.8 450.4,334.3 444.9,333 442.4,329.8 440.4,319.6 	"/>
	<rect x="361.6" y="252.7" fill="#171616" stroke="#E7265E" stroke-miterlimit="10" width="55.7" height="1.3"/>
	<polygon fill="#171616" stroke="#E7265E" stroke-miterlimit="10" points="394.3,246.7 412.6,246.7 411.9,248.8 394.3,248.8 	"/>
	<polygon fill="#171616" stroke="#E7265E" stroke-miterlimit="10" points="394.3,241.8 394.3,245.5 395.9,245.5 396,241.8 	"/>
	<polygon fill="#171616" stroke="#E7265E" stroke-miterlimit="10" points="374.7,225 375.9,250.8 378.9,250.8 378.1,226.5 	"/>
	<polygon fill="#171616" stroke="#E7265E" stroke-miterlimit="10" points="361.6,255.4 364.3,314 362.9,314 361.5,284.7 
		360.1,255.5 	"/>
	<polygon fill="#171616" stroke="#E7265E" stroke-miterlimit="10" points="364.3,279.4 443,279.4 442.8,283.6 364.3,281.5 	"/>
	<polygon fill="#DCC490" points="211.3,299.3 211.3,311.9 202.8,318.9 202.8,331.5 283.6,332.8 302.6,329.9 306.4,324.6 305.4,314 
		361,311.9 360.1,294.8 	"/>
	<rect x="364.3" y="255.8" fill="#DCC490" width="78.8" height="21.3"/>
	<polygon fill="#DCC490" points="442.8,313.8 365.7,313 364.1,284.7 442.8,284.7 	"/>
	<rect x="136.9" y="346.7" fill="#FFFFFF" width="574.7" height="169.3"/>
	<path fill="#171617" stroke="#E52C61" stroke-miterlimit="10" d="M396,258.6c0.2,15.5,0.2,15.5,0.2,15.5h13.8v-15.9L396,258.6z"/>
	<polygon fill="#171617" stroke="#E52C61" stroke-miterlimit="10" points="396,289.8 395.9,308.8 409.9,308.8 409.9,289.8 	"/>
</g>
</svg>
