<?xml version="1.0" encoding="utf-8"?>
<!-- Generator: Adobe Illustrator 16.0.0, SVG Export Plug-In . SVG Version: 6.00 Build 0)  -->
<!DOCTYPE svg PUBLIC "-//W3C//DTD SVG 1.1//EN" "http://www.w3.org/Graphics/SVG/1.1/DTD/svg11.dtd">
<svg version="1.1" id="Layer_1" xmlns="http://www.w3.org/2000/svg" xmlns:xlink="http://www.w3.org/1999/xlink" x="0px" y="0px"
	 width="612px" height="792px" viewBox="0 0 612 792" enable-background="new 0 0 612 792" xml:space="preserve">
<g id="Layer_1_1_">
	<g id="Layer_8">
	</g>
	<g>
		<g id="Top">
			<polygon id="XMLID_88_" fill="#171616" stroke="#E7265E" stroke-width="0.1" stroke-miterlimit="10" points="1084.773,428.692 
				1084.773,427.675 1083.25,427.675 1082.691,426.407 1082.997,425.646 1084.316,425.646 1084.773,424.528 1084.266,423.971 
				1083.707,423.615 1084.366,422.854 1084.773,422.854 1085.129,421.179 1084.621,420.569 1084.571,419.909 1085.484,419.909 
				1086.094,419.909 1086.094,420.722 1086.094,421.483 1086.094,422.854 1086.854,423.108 1086.854,423.971 1086.397,424.63 
				1086.042,424.732 1086.246,425.392 1087.82,425.646 1088.123,426.813 1087.261,427.675 1086.652,427.574 1086.296,427.778 
				1086.144,428.692 1085.84,428.692 1085.84,427.675 1086.094,427.169 1087.159,427.169 1087.616,426.763 1087.515,426.153 
				1086.804,425.899 1086.094,425.899 1085.789,425.138 1085.738,424.274 1086.296,423.971 1086.499,423.615 1085.789,423.108 
				1085.738,420.417 1085.383,420.315 1085.028,423.361 1084.52,423.464 1084.621,426.153 1083.758,426.153 1083.353,426.407 
				1083.353,427.067 1084.469,427.423 			"/>
			<polygon id="XMLID_90_" fill="#171616" stroke="#E7265E" stroke-width="0.1" stroke-miterlimit="10" points="1102.541,428.184 
				1102.541,427.169 1101.019,427.169 1100.46,425.899 1100.764,425.138 1102.084,425.138 1102.541,424.021 1102.032,423.464 
				1101.475,423.108 1102.135,422.346 1102.541,422.346 1102.896,420.671 1102.389,420.062 1102.338,419.401 1103.251,419.401 
				1103.861,419.401 1103.861,420.215 1103.861,420.976 1103.861,422.346 1104.622,422.6 1104.622,423.464 1104.166,424.122 
				1103.811,424.225 1104.013,424.884 1105.587,425.138 1105.892,426.306 1105.029,427.169 1104.42,427.067 1104.064,427.271 
				1103.912,428.184 1103.607,428.184 1103.607,427.169 1103.861,426.661 1104.928,426.661 1105.385,426.255 1105.282,425.646 
				1104.572,425.392 1103.861,425.392 1103.557,424.63 1103.506,423.768 1104.064,423.464 1104.267,423.108 1103.557,422.6 
				1103.506,419.909 1103.15,419.808 1102.795,422.854 1102.287,422.955 1102.389,425.646 1101.526,425.646 1101.119,425.899 
				1101.119,426.56 1102.237,426.915 			"/>
			<polygon id="XMLID_91_" fill="#171616" stroke="#E7265E" stroke-width="0.1" stroke-miterlimit="10" points="1120.055,427.93 
				1120.055,426.915 1118.532,426.915 1117.973,425.646 1118.278,424.884 1119.598,424.884 1120.055,423.768 1119.547,423.209 
				1118.989,422.854 1119.648,422.091 1120.055,422.091 1120.41,420.417 1119.902,419.808 1119.853,419.148 1120.766,419.148 
				1121.375,419.148 1121.375,419.96 1121.375,420.722 1121.375,422.091 1122.137,422.346 1122.137,423.209 1121.68,423.869 
				1121.325,423.971 1121.527,424.63 1123.102,424.884 1123.405,426.052 1122.543,426.915 1121.933,426.813 1121.577,427.017 
				1121.426,427.93 1121.12,427.93 1121.12,426.915 1121.375,426.407 1122.44,426.407 1122.898,426.001 1122.796,425.392 
				1122.085,425.138 1121.375,425.138 1121.07,424.377 1121.02,423.514 1121.577,423.209 1121.782,422.854 1121.07,422.346 
				1121.02,419.655 1120.664,419.554 1120.309,422.6 1119.801,422.701 1119.902,425.392 1119.039,425.392 1118.634,425.646 
				1118.634,426.306 1119.751,426.661 			"/>
			<polygon id="XMLID_92_" fill="#171616" stroke="#E7265E" stroke-width="0.1" stroke-miterlimit="10" points="1137.111,427.675 
				1137.111,426.661 1135.589,426.661 1134.98,425.392 1135.336,424.63 1136.654,424.63 1137.111,423.514 1136.604,422.955 
				1136.046,422.6 1136.706,421.839 1137.111,421.839 1137.467,420.163 1136.96,419.554 1136.907,418.894 1137.772,418.894 
				1138.432,418.894 1138.432,419.707 1138.432,420.468 1138.432,421.839 1139.192,422.091 1139.192,422.955 1138.736,423.615 
				1138.381,423.716 1138.532,424.377 1140.157,424.63 1140.463,425.8 1139.548,426.661 1138.991,426.56 1138.635,426.763 
				1138.482,427.675 1138.178,427.675 1138.178,426.661 1138.432,426.153 1139.498,426.153 1139.955,425.747 1139.802,425.138 
				1139.143,424.884 1138.432,424.884 1138.127,424.122 1138.026,423.26 1138.635,422.955 1138.787,422.6 1138.127,422.091 
				1138.026,419.401 1137.722,419.3 1137.366,422.346 1136.857,422.447 1136.96,425.138 1136.097,425.138 1135.69,425.392 
				1135.69,426.052 1136.756,426.407 			"/>
			<polygon id="XMLID_93_" fill="#171616" stroke="#E7265E" stroke-width="0.1" stroke-miterlimit="10" points="1155.845,427.675 
				1155.845,426.661 1154.32,426.661 1153.763,425.392 1154.067,424.63 1155.388,424.63 1155.845,423.514 1155.336,422.955 
				1154.778,422.6 1155.438,421.839 1155.845,421.839 1156.2,420.163 1155.691,419.554 1155.642,418.894 1156.555,418.894 
				1157.164,418.894 1157.164,419.707 1157.164,420.468 1157.164,421.839 1157.926,422.091 1157.926,422.955 1157.469,423.615 
				1157.112,423.716 1157.316,424.377 1158.891,424.63 1159.194,425.8 1158.331,426.661 1157.723,426.56 1157.366,426.763 
				1157.215,427.675 1156.909,427.675 1156.909,426.661 1157.164,426.153 1158.229,426.153 1158.687,425.747 1158.585,425.138 
				1157.874,424.884 1157.164,424.884 1156.859,424.122 1156.809,423.26 1157.366,422.955 1157.569,422.6 1156.859,422.091 
				1156.809,419.401 1156.454,419.3 1156.099,422.346 1155.59,422.447 1155.691,425.138 1154.828,425.138 1154.423,425.392 
				1154.423,426.052 1155.539,426.407 			"/>
			<polygon id="XMLID_94_" fill="#171616" stroke="#E7265E" stroke-width="0.1" stroke-miterlimit="10" points="1173.206,427.169 
				1173.206,426.153 1171.683,426.153 1171.124,424.884 1171.429,424.122 1172.799,424.122 1173.206,423.006 1172.698,422.447 
				1172.189,422.091 1172.851,421.331 1173.206,421.331 1173.612,419.655 1173.104,419.046 1173.053,418.387 1173.916,418.387 
				1174.575,418.387 1174.575,419.198 1174.575,419.96 1174.575,421.331 1175.338,421.585 1175.338,422.447 1174.881,423.108 
				1174.475,423.209 1174.678,423.869 1176.251,424.122 1176.606,425.291 1175.693,426.153 1175.135,426.052 1174.729,426.255 
				1174.627,427.169 1174.323,427.169 1174.323,426.153 1174.575,425.646 1175.643,425.646 1176.1,425.239 1175.946,424.63 
				1175.236,424.377 1174.575,424.377 1174.221,423.615 1174.171,422.753 1174.729,422.447 1174.932,422.091 1174.221,421.585 
				1174.171,418.894 1173.866,418.793 1173.459,421.839 1172.952,421.939 1173.104,424.63 1172.189,424.63 1171.834,424.884 
				1171.834,425.544 1172.9,425.899 			"/>
			<polygon id="XMLID_95_" fill="#171616" stroke="#E7265E" stroke-width="0.1" stroke-miterlimit="10" points="1191.075,426.509 
				1191.075,425.596 1189.552,425.596 1188.993,424.225 1189.298,423.464 1190.669,423.464 1191.075,422.346 1190.567,421.839 
				1190.06,421.433 1190.719,420.671 1191.075,420.671 1191.48,419.046 1190.973,418.488 1190.923,417.777 1191.784,417.777 
				1192.445,417.777 1192.445,418.538 1192.445,419.3 1192.445,420.671 1193.208,420.925 1193.208,421.839 1192.75,422.447 
				1192.344,422.6 1192.547,423.311 1194.12,423.564 1194.476,424.63 1193.563,425.596 1193.004,425.392 1192.598,425.646 
				1192.496,426.509 1192.191,426.509 1192.191,425.596 1192.445,425.088 1193.511,425.088 1193.969,424.63 1193.816,424.072 
				1193.105,423.716 1192.445,423.716 1192.09,423.057 1192.039,422.091 1192.598,421.839 1192.801,421.433 1192.09,420.925 
				1192.039,418.285 1191.734,418.134 1191.328,421.179 1190.821,421.331 1190.973,424.072 1190.06,424.072 1189.704,424.326 
				1189.704,424.884 1190.771,425.239 			"/>
		</g>
		<g id="Layer_2">
			<polygon id="XMLID_5_" fill="#191919" stroke="#E52C61" stroke-miterlimit="10" points="1011.927,529.459 1052.589,526.413 
				1069.596,524.23 1069.596,519.916 1078.479,518.393 1080.255,515.601 1080.255,510.017 1097.922,510.017 1120.969,510.017 
				1144.828,510.017 1148.381,510.017 1149.549,510.017 1149.549,516.87 1161.732,519.764 1161.732,522.708 1181.784,526.009 
				1231.788,532.86 1231.788,537.684 1231.788,539.461 1230.925,538.091 1230.265,534.638 1224.173,533.267 1207.825,530.982 
				1181.53,527.276 1161.377,523.723 1160.362,520.829 1149.194,518.139 1147.924,511.54 1081.677,511.185 1081.423,515.601 
				1080.255,518.545 1070.508,521.185 1069.596,525.754 1052.589,527.43 1011.927,530.476 			"/>
			<polygon id="XMLID_6_" fill="#151515" stroke="#E52C61" stroke-miterlimit="10" points="1011.927,539.461 1031.014,539.461 
				1060.203,539.461 1056.143,535.652 1058.173,532.353 1078.479,532.353 1078.479,530.068 1080.255,528.038 1082.286,528.038 
				1082.286,521.185 1080.255,518.545 1081.423,515.601 1081.677,511.185 1088.631,511.185 1143.203,511.185 1143.203,515.601 
				1145.234,516.616 1145.234,527.022 1145.234,530.831 1168.841,532.606 1170.108,539.461 1236.356,540.729 1236.356,543.775 
				1234.327,543.775 1234.327,541.745 1169.602,541.237 1166.81,535.398 1144.879,532.251 1143.965,527.479 1144.371,517.53 
				1142.34,515.753 1141.833,512.707 1083.047,512.047 1082.793,515.753 1082.185,518.291 1083.454,520.068 1083.454,527.479 
				1083.047,529.562 1080.764,529.459 1079.494,530.577 1079.494,533.521 1058.579,533.369 1057.817,535.398 1062.132,540.119 
				1011.927,540.882 			"/>
			<polygon id="XMLID_1_" fill="#151515" stroke="#E52C61" stroke-miterlimit="10" points="1063.604,597.688 1064.772,547.228 
				1064.163,541.338 1064.163,537.785 1073.25,537.277 1073.25,540.323 1069.695,544.182 1068.427,544.384 1068.833,569.563 
				1068.731,597.991 1068.071,597.991 1067.971,572.813 1067.564,543.775 1069.087,543.115 1072.387,540.374 1072.539,537.937 
				1064.772,538.444 1064.772,541.491 1065.534,547.48 1064.366,597.991 			"/>
			<polygon id="XMLID_7_" fill="#171617" stroke="#E52C61" stroke-miterlimit="10" points="1079.494,530.577 1080.407,535.652 
				1080.407,540.729 1080.407,542.658 1081.373,542.658 1081.373,546.313 1081.88,581.595 1081.88,597.991 1082.691,597.991 
				1082.691,582.103 1082.185,542.1 1081.119,541.39 1081.119,535.652 1080.001,532.606 1088.021,532.455 1086.753,535.907 
				1086.348,541.591 1085.687,542.607 1087.007,597.991 1087.515,597.991 1087.261,589.869 1087.007,575.098 1086.854,562.305 
				1086.195,545.703 1086.195,543.369 1086.753,542.151 1087.108,540.119 1087.362,535.907 1089.038,531.744 1080.51,531.693 			"/>
			<path id="XMLID_8_" fill="#171617" stroke="#E52C61" stroke-miterlimit="10" d="M1082.539,506.21c0,0,1.017-3.757,4.772-6.753
				c3.756-2.994,7.411-4.364,9.949-4.974c2.539-0.61,11.473-1.321,13.909-1.473c2.436-0.152,12.996,0.202,14.771,0.404
				c1.777,0.204,7.615,1.067,12.946,4.063c5.329,2.995,4.061,12.488,4.061,12.488l-0.762-4.873c0,0,0.203-2.184-1.473-4.315
				c-1.675-2.132-6.802-5.33-10.813-6.041c-4.01-0.711-2.995-0.965-10.306-1.066c-7.31-0.101-12.233,0.153-12.69,0.153
				c-0.458,0-1.319,0.202-3.857,0.405c-2.539,0.204-3.959,0.305-6.65,1.472c-2.69,1.169-3.452,1.422-6.295,2.59
				c-2.843,1.167-4.264,3.249-4.264,3.249L1082.539,506.21z"/>
			<polygon id="XMLID_9_" fill="#171617" stroke="#E52C61" stroke-miterlimit="10" points="1081.931,506.21 1143.051,506.21 
				1142.442,506.921 1081.931,506.921 			"/>
			<path id="XMLID_10_" fill="#171617" stroke="#E52C61" stroke-miterlimit="10" d="M1091.83,494.179c0,0,1.675-0.764,0.658-5.84
				c-1.015-5.075,2.945-10.306,2.945-10.306s4.721-2.537,8.528-3.451c3.807-0.914,0.15-0.151,4.567-1.016
				c4.417-0.862,15.688,0,15.688,0s3.451,0.255,5.635,1.421c2.184,1.169,6.244,3.199,6.498,3.808
				c0.254,0.61,2.792,11.067-2.183,13.453c-4.977,2.387-2.642-0.203-3.706,0.813c-1.017,0.964,1.929-0.66,3.452-2.082
				c1.521-1.421,1.929-2.943,2.183-5.229c0.254-2.283,0.659-3.299-0.152-5.075c-0.813-1.776-4.062-3.301-4.062-3.301l-5.077-2.437
				c0,0-4.313-0.152-9.034-0.406c-4.722-0.254-13.707,1.167-13.707,1.167l-7.36,2.944c0,0-1.727,1.574-2.438,5.382
				c-0.711,3.807-0.609,6.091-0.405,6.751C1093.961,491.487,1091.83,494.179,1091.83,494.179z"/>
			<path id="XMLID_11_" fill="#171617" stroke="#E52C61" stroke-miterlimit="10" d="M1096.907,597.332l0.862-35.688
				c0,0,2.792-6.701,5.33-8.731c2.538-2.031,2.183-2.689,6.752-4.062c4.568-1.371,7.767-0.66,7.767-0.66s2.945-0.508,5.99,1.269
				c3.047,1.777,7.006,5.584,7.006,5.584s2.69,2.691,2.793,5.229c0.102,2.538,1.015,37.059,1.015,37.059l1.016,0.659l-0.913-38.377
				c0,0-0.915-3.3-2.689-5.077c-1.777-1.776-7.615-5.99-7.615-5.99l-5.788-1.27h-5.229l-3.756,0.813c0,0-3.96,1.016-6.601,3.301
				c-2.64,2.283-5.33,8.782-5.33,8.782l-0.608,11.168l-1.167,25.13L1096.907,597.332z"/>
			<polygon id="XMLID_13_" fill="#171617" stroke="#E52C61" stroke-miterlimit="10" points="1087.972,518.8 1086.957,520.677 
				1086.094,527.479 1089.038,529.814 1089.038,528.8 1087.565,527.479 1087.565,522.201 1089.038,519.002 			"/>
			<polygon id="XMLID_12_" fill="#171617" stroke="#E52C61" stroke-miterlimit="10" points="1089.038,516.769 1136.503,515.601 
				1135.336,516.769 1089.038,519.002 			"/>
			<polygon id="XMLID_14_" fill="#171617" stroke="#E52C61" stroke-miterlimit="10" points="1089.038,531.744 1134.472,531.744 
				1137.366,536.06 1121.832,536.06 1099.646,537.277 1087.565,537.277 			"/>
			<path id="XMLID_16_" fill="#171617" stroke="#E52C61" stroke-miterlimit="10" d="M1090.002,597.991l1.016-37.058
				c0,0,0.862-8.274,6.955-12.185c6.092-3.908,10.508-4.975,10.508-4.975s1.625-0.762,4.365-0.762c2.742,0,7.92-0.152,11.372,0.762
				c3.401,0.914,6.295,1.625,8.579,3.554c2.284,1.93,3.655,4.213,4.67,5.735c1.016,1.523-1.269-0.507-1.269-0.507l-3.909-4.822
				l-8.071-3.301l-11.32-0.659c0,0-3.046,0.254-3.808,0.607c-0.762,0.355-5.99,1.931-10.407,4.977
				c-4.416,3.047-7.005,11.777-7.005,11.777l-0.354,8.63l-0.406,26.753L1090.002,597.991z"/>
			<path id="XMLID_17_" fill="#171617" stroke="#E52C61" stroke-miterlimit="10" d="M1135.993,517.275l3.048,2.895v5.482
				l-2.487,1.015l-2.234,3.147l1.018,1.27l2.282,4.214v5.482c0,0,1.523,2.132,1.371,2.285c-0.152,0.15,0,4.974,0,4.974v34.927
				v14.112l1.117,1.066l-0.508-25.332l0.508-21.677v-8.885l-1.522-3.452v-3.4l-1.422-3.654l-0.711-1.93l1.116-3.046l2.539-0.509
				v-3.553v-3.045l-2.539-2.387H1135.993L1135.993,517.275z"/>
			<polygon id="XMLID_18_" fill="#171617" stroke="#E52C61" stroke-miterlimit="10" points="1144.879,532.251 1144.116,536.06 
				1144.116,597.586 1144.879,597.586 1144.879,536.161 			"/>
			<polygon id="XMLID_19_" fill="#171617" stroke="#E52C61" stroke-miterlimit="10" points="1089.038,519.662 1087.565,522.962 
				1091.83,523.47 1116.197,521.591 1126.604,522.201 1139.041,521.591 1135.993,517.275 			"/>
			<path id="XMLID_15_" fill="#171617" stroke="#E52C61" stroke-miterlimit="10" d="M1123.812,472.197l0.508-9.798l2.284-2.284
				l0.914-13.199l-1.574-0.914l1.574-1.775v-5.279l1.675-0.66c0,0-1.168-3.199,1.422-6.244c2.59-3.046,6.6-4.975,6.6-4.975
				s2.689,1.016,3.452,1.521c0.762,0.509,2.944,1.423,4.314,3.809c1.37,2.387,1.675,7.868,1.675,7.868v3.452l0.913,0.659v1.676
				l-0.761-0.151l0.761,13.96l1.018,0.406v1.775l-0.661,0.254l0.661,12.185h-1.271l0.152-3.705l-0.254-7.869l-1.421-21.728
				c0,0-0.509-3.96-0.661-6.347c-0.151-2.385-7.868-7.105-7.868-7.105s-1.37,0.507-3.401,2.538
				c-2.029,2.029-4.061,4.314-3.959,5.584c0.103,1.269-0.254,3.196-0.254,3.196l-1.421,0.509l-0.254,4.468l-0.103,1.879l0.405,4.873
				l-0.761,9.595l-1.676,2.538L1123.812,472.197z"/>
			<polygon id="XMLID_20_" fill="#171617" stroke="#E52C61" stroke-miterlimit="10" points="1128.38,444.175 1145.132,443.77 
				1145.132,444.175 1127.771,444.835 			"/>
			<polygon id="XMLID_22_" fill="#171617" stroke="#E52C61" stroke-miterlimit="10" points="1134.066,447.576 1134.066,457.983 
				1139.752,457.983 1139.752,447.932 1134.472,447.576 			"/>
			<polygon id="XMLID_21_" fill="#171617" stroke="#E52C61" stroke-miterlimit="10" points="1126.4,461.841 1146.504,461.841 
				1146.504,460.521 1126.806,461.13 			"/>
			<polygon id="XMLID_23_" fill="#171617" stroke="#E52C61" stroke-miterlimit="10" points="1132.797,464.074 1140.157,464.074 
				1140.157,475.091 1133.152,475.091 			"/>
			<path id="XMLID_25_" fill="#171617" stroke="#E52C61" stroke-miterlimit="10" d="M1134.066,440.216v-4.568l0.914-0.862h4.162
				l0.609,1.521c0,0-0.255,2.641,0,2.944c0.253,0.355,0,0.914,0,0.914h-0.862l-0.104-3.655l-0.608-1.167h-2.843l-0.608,0.863
				l-0.255,3.959L1134.066,440.216L1134.066,440.216z"/>
			<polygon id="XMLID_24_" fill="#171617" stroke="#E52C61" stroke-miterlimit="10" points="1132.797,475.497 1148.89,475.091 
				1149.549,477.171 1148.433,476.157 1141.681,476.157 1136.097,476.157 1132.797,476.157 1132.797,475.091 			"/>
			<polygon id="XMLID_27_" fill="#171617" stroke="#E52C61" stroke-miterlimit="10" points="1136.097,478.137 1149.549,478.137 
				1149.549,478.796 1140.157,478.796 1136.249,478.796 			"/>
			<polygon id="XMLID_26_" fill="#171617" stroke="#E52C61" stroke-miterlimit="10" points="1150.209,478.441 1162.493,478.441 
				1162.493,480.572 1150.209,480.572 1150.209,479.509 1161.834,480.065 1161.631,478.796 1150.209,478.796 			"/>
			<polygon id="XMLID_3_" fill="#171616" stroke="#E7265E" stroke-miterlimit="10" points="1051.726,432.499 1130.513,432.094 
				1127.771,433.21 1054.975,433.21 			"/>
			<polygon id="XMLID_4_" fill="#171616" stroke="#E7265E" stroke-miterlimit="10" points="1144.879,432.499 1221.635,430.469 
				1221.635,431.483 1146.504,433.21 			"/>
			<polygon id="XMLID_28_" fill="#171616" stroke="#E7265E" stroke-miterlimit="10" points="1150.209,480.572 1151.225,499.204 
				1151.225,510.017 1149.549,510.017 1150.209,498.696 1149.549,485.498 1149.549,480.572 1149.549,479.509 			"/>
			<polygon id="XMLID_30_" fill="#171616" stroke="#E7265E" stroke-miterlimit="10" points="1148.433,446.308 1159.093,446.308 
				1159.093,447.576 1148.433,447.576 1148.433,446.966 			"/>
			<polygon id="XMLID_29_" fill="#171616" stroke="#E7265E" stroke-miterlimit="10" points="1159.093,448.49 1215.797,447.576 
				1215.797,448.49 1159.093,449.251 			"/>
			<polygon id="XMLID_32_" fill="#171616" stroke="#E7265E" stroke-miterlimit="10" points="1149.549,461.13 1159.093,461.13 
				1159.854,461.13 1159.854,463.161 1150.209,463.161 			"/>
			<polygon id="XMLID_33_" fill="#171616" stroke="#E7265E" stroke-miterlimit="10" points="1160.464,462.146 1232.549,461.841 
				1232.549,464.074 1160.464,464.074 1160.464,462.907 			"/>
			<polygon id="XMLID_31_" fill="#171616" stroke="#E7265E" stroke-miterlimit="10" points="1163.51,479.354 1239.301,478.796 
				1239.301,480.572 1163.51,480.572 			"/>
			<polygon id="XMLID_35_" fill="#171616" stroke="#E7265E" stroke-miterlimit="10" points="1151.834,497.58 1164.524,497.58 
				1164.524,500.523 1151.834,500.523 1151.834,498.239 			"/>
			<polygon id="XMLID_34_" fill="#171616" stroke="#E7265E" stroke-miterlimit="10" points="1165.286,499.052 1245.748,498.341 
				1245.748,500.523 1165.286,501.031 			"/>
			<polygon id="XMLID_36_" fill="#171616" stroke="#E7265E" stroke-miterlimit="10" points="1215.797,447.576 1229.401,447.576 
				1229.401,448.388 1215.797,448.49 			"/>
			<polygon id="XMLID_37_" fill="#171616" stroke="#E7265E" stroke-miterlimit="10" points="1221.635,430.469 1229.401,430.469 
				1229.401,431.839 1221.635,431.483 			"/>
			<polygon id="XMLID_39_" fill="#171616" stroke="#E7265E" stroke-miterlimit="10" points="1157.569,433.21 1157.569,446.308 
				1159.093,446.308 1158.331,433.21 			"/>
			<polygon id="XMLID_38_" fill="#171616" stroke="#E7265E" stroke-miterlimit="10" points="1159.093,449.251 1159.854,461.13 
				1159.093,460.521 1158.331,449.251 			"/>
			<polygon id="XMLID_40_" fill="#171616" stroke="#E7265E" stroke-miterlimit="10" points="1160.464,464.837 1160.464,478.137 
				1161.631,477.171 1161.631,464.837 			"/>
			<polygon id="XMLID_41_" fill="#171616" stroke="#E7265E" stroke-miterlimit="10" points="1161.021,481.741 1161.631,497.58 
				1163.51,497.58 1162.291,482.35 			"/>
			<polygon id="XMLID_42_" fill="#171616" stroke="#E7265E" stroke-miterlimit="10" points="1162.493,501.539 1164.524,520.373 
				1165.286,520.373 1164.169,501.539 			"/>
			<polygon id="XMLID_44_" fill="#171616" stroke="#E7265E" stroke-miterlimit="10" points="1166.707,519.814 1251.586,518.899 
				1251.586,522.099 1169.499,522.099 1166.707,520.474 			"/>
			<polygon id="XMLID_43_" fill="#171616" stroke="#E7265E" stroke-miterlimit="10" points="1078.631,428.793 1134.066,428.945 
				1133.711,430.316 1078.631,429.555 			"/>
			<polygon id="XMLID_47_" fill="#171616" stroke="#E7265E" stroke-miterlimit="10" points="1142.849,428.793 1208.588,427.169 
				1225.442,421.179 1209.299,428.134 1143.103,429.555 			"/>
			<polygon id="XMLID_46_" fill="#171616" stroke="#E7265E" stroke-miterlimit="10" points="1125.335,446.459 1116.045,446.459 
				1125.335,447.576 			"/>
			<polygon id="XMLID_48_" fill="#171616" stroke="#E7265E" stroke-miterlimit="10" points="1050.305,447.576 1115.436,446.966 
				1115.436,448.236 1050.305,448.744 			"/>
			
				<rect id="XMLID_49_" x="1117.212" y="460.521" fill="#171616" stroke="#E7265E" stroke-miterlimit="10" width="8.123" height="1.675"/>
			<polygon id="XMLID_50_" fill="#171616" stroke="#E7265E" stroke-miterlimit="10" points="1116.045,461.333 1041.928,463.161 
				1041.928,464.837 1116.553,463.161 			"/>
			
				<rect id="XMLID_51_" x="1034.567" y="480.572" fill="#171616" stroke="#E7265E" stroke-miterlimit="10" width="57.264" height="1.169"/>
			<polygon id="XMLID_53_" fill="#171616" stroke="#E7265E" stroke-miterlimit="10" points="1028.374,498.341 1084.266,497.681 
				1084.266,500.017 1028.374,500.727 1028.374,499.204 			"/>
			
				<rect id="XMLID_52_" x="1022.79" y="520.373" fill="#171616" stroke="#E7265E" stroke-miterlimit="10" width="45.536" height="2.184"/>
			<polygon id="XMLID_54_" fill="#171616" stroke="#E7265E" stroke-miterlimit="10" points="1078.631,428.793 1073.809,428.793 
				1052.486,421.939 1072.032,429.555 1078.631,429.555 			"/>
			<polygon id="XMLID_45_" fill="#171616" stroke="#E7265E" stroke-miterlimit="10" points="1115.436,433.21 1116.045,446.459 
				1117.212,446.459 1116.299,433.21 			"/>
			<polygon id="XMLID_56_" fill="#171616" stroke="#E7265E" stroke-miterlimit="10" points="1115.436,448.236 1115.436,461.384 
				1117.212,461.333 1116.553,447.576 1115.436,446.966 			"/>
			<path id="XMLID_57_" fill="#171616" stroke="#E7265E" stroke-miterlimit="10" d="M1109.547,472.096c-0.508-3.048,0-6.498,0-6.498
				l0.507-2.642c0,0-0.507-0.05,0.863-0.761c1.371-0.761,5.687,0,5.687,0s0.151-0.813,1.522,1.878c1.37,2.691,0,8.529,0,8.529
				h-0.914c0,0,1.065-2.69,0.914-4.315c-0.153-1.624-0.914-4.214-0.914-4.214l-1.776-1.117l-3.857-0.404l-1.271,3.3l-0.254,4.975
				l-0.102,1.777L1109.547,472.096z"/>
			<polygon id="XMLID_58_" fill="#171616" stroke="#E7265E" stroke-miterlimit="10" points="1051.726,419.401 1048.782,432.094 
				1047.767,432.094 1049.035,419.401 1051.218,419.401 			"/>
			<polygon id="XMLID_63_" fill="#171616" stroke="#E7265E" stroke-miterlimit="10" points="1046.649,447.576 1050.305,447.576 
				1050.305,448.744 1045.888,448.744 1045.888,446.966 			"/>
			
				<rect id="XMLID_65_" x="1227.575" y="432.094" fill="#171616" stroke="#E7265E" stroke-miterlimit="10" width="0.812" height="14.872"/>
			<polygon id="XMLID_64_" fill="#171616" stroke="#E7265E" stroke-miterlimit="10" points="1229.401,449.251 1229.401,461.13 
				1230.772,461.13 1230.011,449.251 			"/>
			<polygon id="XMLID_66_" fill="#171616" stroke="#E7265E" stroke-miterlimit="10" points="1232.549,464.837 1233.311,466.461 
				1236.356,466.969 1236.356,477.68 1235.747,477.68 1235.493,467.983 1232.549,466.714 1231.788,464.837 			"/>
			<polygon id="XMLID_67_" fill="#171616" stroke="#E7265E" stroke-miterlimit="10" points="1237.626,481.741 1237.626,483.67 
				1241.84,485.294 1243.108,486.665 1243.108,497.58 1242.094,497.58 1242.195,486.665 1240.366,485.802 1237.626,484.635 
				1236.356,481.741 			"/>
			<polygon id="XMLID_68_" fill="#171616" stroke="#E7265E" stroke-miterlimit="10" points="1243.972,501.539 1243.972,504.33 
				1248.032,506.361 1248.032,518.139 1249.454,518.139 1249.454,505.702 1245.748,503.925 1245.241,501.539 			"/>
			<polygon id="XMLID_69_" fill="#171616" stroke="#E7265E" stroke-miterlimit="10" points="1250.825,522.859 1250.825,542.252 
				1249.454,542.252 1250.063,522.859 			"/>
			<polygon id="XMLID_70_" fill="#171616" stroke="#E7265E" stroke-miterlimit="10" points="1237.118,542.252 1250.825,542.252 
				1250.825,543.775 1237.118,543.014 			"/>
			<polygon id="XMLID_72_" fill="#171616" stroke="#E7265E" stroke-miterlimit="10" points="1229.401,417.27 1229.401,430.469 
				1227.98,430.316 1228.387,417.27 			"/>
			<polygon id="XMLID_73_" fill="#171616" stroke="#E7265E" stroke-miterlimit="10" points="1155.286,539.461 1155.286,543.775 
				1158.331,544.689 1156.809,597.991 1158.331,597.991 1158.331,567.634 1159.042,543.014 1156.301,543.014 1155.996,538.8 			"/>
			<path id="XMLID_74_" fill="#171616" stroke="#E7265E" stroke-miterlimit="10" d="M1146.909,539.461h16.144
				c0.101-0.406-0.355-1.017-0.355-1.017s-3.3,0.102-9.645,0.354C1146.706,539.054,1146.909,539.461,1146.909,539.461z"/>
			<polygon id="XMLID_71_" fill="#171616" stroke="#E7265E" stroke-miterlimit="10" points="1162.596,539.968 1162.596,597.586 
				1161.732,596.824 1161.732,541.136 			"/>
			<polygon id="XMLID_76_" fill="#171616" stroke="#E7265E" stroke-miterlimit="10" points="1163.915,545.045 1236.356,543.775 
				1233.463,544.435 1165.286,545.907 			"/>
			<polygon id="XMLID_75_" fill="#171616" stroke="#E7265E" stroke-miterlimit="10" points="1011.927,545.553 1063.604,543.775 
				1063.604,544.689 1011.927,546.414 			"/>
			<polygon id="XMLID_55_" fill="#171616" stroke="#E7265E" stroke-miterlimit="10" points="1045.888,449.606 1045.229,451.789 
				1045.229,455.698 1043.096,462.298 1043.959,462.298 1045.888,455.952 1045.888,452.145 1047.004,449.606 			"/>
			<polygon id="XMLID_59_" fill="#171616" stroke="#E7265E" stroke-miterlimit="10" points="1043.096,465.953 1038.273,469.404 
				1038.273,479.354 1039.288,479.354 1039.288,469.913 1044.111,465.953 			"/>
			<polygon id="XMLID_60_" fill="#171616" stroke="#E7265E" stroke-miterlimit="10" points="1035.988,483.111 1035.988,486.156 
				1031.522,487.578 1030.912,497.681 1031.522,497.681 1032.536,488.441 1036.751,486.665 1036.751,483.111 			"/>
			<polygon id="XMLID_62_" fill="#171616" stroke="#E7265E" stroke-miterlimit="10" points="1028.374,501.792 1028.374,508.393 
				1024.922,510.017 1023.907,510.017 1023.907,519.154 1024.922,519.154 1025.075,511.185 1029.389,508.748 1029.389,501.792 			
				"/>
			<polygon id="XMLID_77_" fill="#171616" stroke="#E7265E" stroke-miterlimit="10" points="1021.368,523.47 1020.1,523.47 
				1020.76,528.19 1021.368,527.022 1020.76,524.332 			"/>
			<polygon id="XMLID_61_" fill="#171616" stroke="#E7265E" stroke-miterlimit="10" points="1045.888,433.21 1047.004,432.651 
				1047.004,445.698 1045.888,445.698 			"/>
			<polygon id="XMLID_79_" fill="#171616" stroke="#E7265E" stroke-miterlimit="10" points="1084.266,483.67 1091.119,485.294 
				1084.266,485.294 1084.266,496.158 1087.565,497.58 1083.556,496.666 1082.845,483.67 			"/>
			<polygon id="XMLID_96_" fill="#171616" stroke="#E7265E" stroke-miterlimit="10" points="1144.422,481.639 1137.568,483.264 
				1144.422,483.264 1144.422,494.128 1141.122,495.55 1145.132,494.635 1145.793,481.639 			"/>
			<polygon id="XMLID_80_" fill="#171616" stroke="#E7265E" stroke-miterlimit="10" points="1143.103,497.58 1149.549,497.58 
				1149.549,498.341 1143.103,499.052 			"/>
			<polygon id="XMLID_81_" fill="#171616" stroke="#E7265E" stroke-miterlimit="10" points="1137.264,481.132 1140.157,481.132 
				1140.157,482.959 1137.264,484.482 			"/>
			<polygon id="XMLID_83_" fill="#171616" stroke="#E7265E" stroke-miterlimit="10" points="1011.927,530.476 1011.927,539.461 
				1012.637,539.461 1012.637,530.373 			"/>
			<polygon id="XMLID_82_" fill="#171616" stroke="#E7265E" stroke-miterlimit="10" points="1011.927,546.414 1011.927,596.977 
				1014.363,595.962 1012.637,547.329 			"/>
			<polygon id="XMLID_84_" fill="#171616" stroke="#E7265E" stroke-miterlimit="10" points="1231.788,544.841 1231.788,597.991 
				1233.463,597.586 1232.651,544.841 			"/>
			<polygon id="XMLID_86_" fill="#171616" stroke="#E7265E" stroke-miterlimit="10" points="1233.463,570.528 1251.586,570.528 
				1250.063,572.66 1233.463,571.594 			"/>
			<polygon id="XMLID_85_" fill="#171616" stroke="#E7265E" stroke-miterlimit="10" points="1250.825,543.775 1251.586,597.991 
				1250.063,597.991 1249.454,543.775 			"/>
			<polygon id="XMLID_87_" fill="#171616" stroke="#E7265E" stroke-miterlimit="10" points="1011.927,540.882 1011.927,545.553 
				1012.637,543.775 1013.145,540.83 			"/>
			<polygon id="XMLID_89_" fill="#171616" stroke="#E7265E" stroke-width="0.1" stroke-miterlimit="10" points="1012.282,597.991 
				1250.063,597.991 1250.825,600.124 1011.927,600.124 			"/>
			<polygon id="XMLID_144_" fill="#171617" stroke="#E52C61" stroke-miterlimit="10" points="1138.482,532.353 1144.116,532.353 
				1143.356,533.725 1139.041,533.725 			"/>
		</g>
		<g id="Layer_4">
			<path id="XMLID_97_" fill="#3C3A3A" d="M1098.277,596.824l0.862-35.18c0,0,5.534-12.691,15.737-12.54
				c10.203,0.152,16.903,10.306,16.903,10.306l1.168,37.414H1098.277L1098.277,596.824z"/>
			<rect id="XMLID_78_" x="1048.07" y="433.21" fill="#DCC490" width="67.314" height="13.81"/>
			<rect id="XMLID_99_" x="1159.093" y="433.007" fill="#DCC490" width="67.771" height="14.367"/>
			<rect id="XMLID_98_" x="1047.004" y="449.251" fill="#DCC490" width="67.467" height="12.134"/>
			<rect id="XMLID_101_" x="1160.718" y="449.251" fill="#DCC490" width="67.466" height="12.134"/>
			<path id="XMLID_102_" fill="#DCC490" d="M1108.582,464.074v8.529c-10.153,2.232-16.804,6.04-16.804,6.04l-51.628,0.914v-9.087
				l5.331-4.722l60.512-1.016L1108.582,464.074z"/>
			<polygon id="XMLID_103_" fill="#DCC490" points="1163.104,465.445 1162.596,477.171 1233.463,477.171 1233.463,469.507 
				1229.401,465.953 			"/>
			<path id="XMLID_100_" fill="#DCC490" d="M1037.765,483.162"/>
			<path id="XMLID_104_" fill="#DCC490" d="M1037.765,486.665"/>
			<polygon id="XMLID_105_" fill="#DCC490" points="1032.536,488.441 1037.765,486.665 1037.765,483.162 1082.845,482.807 
				1083.556,496.666 1031.522,497.681 			"/>
			<polygon id="XMLID_107_" fill="#DCC490" points="1162.9,481.894 1164.323,498.341 1241.434,498.341 1241.434,485.903 
				1237.118,480.269 			"/>
			<polygon id="XMLID_108_" fill="#DCC490" points="1030.912,501.539 1030.912,509.763 1026.647,510.931 1026.647,518.899 
				1068.325,518.899 1076.955,517.072 1079.241,515.347 1078.631,509.763 1083.556,500.777 			"/>
			<polygon id="XMLID_106_" fill="#DCC490" points="1165.286,501.792 1166.707,518.139 1246.713,517.275 1246.713,507.985 
				1243.972,506.565 1243.108,501.539 			"/>
			<polygon id="XMLID_109_" fill="#F8F4BC" points="1117.212,434.784 1117.973,444.835 1125.335,444.835 1126.4,442.348 
				1126.4,437.524 1127.771,436.561 1127.771,433.869 1117.212,433.869 			"/>
			<path id="XMLID_111_" fill="#F8F4BC" d="M1146.504,433.869c0,0,1.774,8.275,1.929,9.14c0.152,0.861,0,1.826,0,1.826l7.97,0.863
				l0.103-11.829H1146.504z"/>
			<polygon id="XMLID_110_" fill="#F8F4BC" points="1116.704,448.388 1117.466,460.521 1124.825,460.521 1125.894,447.881 			"/>
			<polygon id="XMLID_112_" fill="#F8F4BC" points="1147.468,448.135 1157.773,448.135 1158.585,460.521 1148.433,460.268 			"/>
			<polygon id="XMLID_114_" fill="#F8F4BC" points="1148.433,463.82 1159.602,463.82 1159.854,477.934 1150.412,477.68 
				1148.433,474.481 			"/>
			<path id="XMLID_113_" fill="#F8F4BC" d="M1117.771,462.806l5.837,0.203l-0.405,9.898h-4.722c0,0,0.813-1.016,0.559-5.381
				c-0.254-4.366-1.016-4.163-1.016-4.163L1117.771,462.806z"/>
			<polygon id="XMLID_116_" fill="#F8F4BC" points="1150.666,481.132 1151.631,495.55 1151.834,496.97 1161.021,497.225 
				1160.464,481.132 			"/>
			<polygon id="XMLID_115_" fill="#F8F4BC" points="1151.834,501.539 1151.834,510.474 1150.209,510.98 1150.412,515.601 
				1163.915,520.373 1161.732,501.539 			"/>
			<polygon id="XMLID_119_" fill="#DCC490" points="1170.362,522.859 1249.454,522.859 1249.454,541.338 1237.777,540.628 
				1232.651,539.866 1232.651,537.836 1232.651,533.369 1231.788,532.1 1173.561,523.47 			"/>
			<polygon id="XMLID_117_" fill="#DCC490" points="1021.368,524.332 1022.79,523.47 1035.988,522.962 1050.05,522.962 
				1057.665,522.962 1068.427,522.962 1068.325,523.875 1055.075,525.5 1044.212,526.516 1033.552,527.479 1021.876,528.19 
				1021.774,525.805 			"/>
		</g>
		<g id="Layer_6">
			<polygon id="XMLID_125_" fill="#F3EA97" points="1128.431,443.515 1145.132,443.312 1144.879,440.113 1134.98,440.113 
				1133,440.113 1128.939,440.216 			"/>
			<polygon id="XMLID_126_" fill="#F3EA97" points="1129.142,440.216 1133.457,440.216 1133.457,435.951 1134.523,434.429 
				1139.548,434.429 1140.463,436.053 1140.463,439.047 1140.463,440.216 1144.879,440.216 1144.32,434.682 1137.163,428.184 
				1133.762,431.18 1132.442,432.753 1131.122,434.378 1130.259,435.494 1130.36,436.814 1130.259,437.524 1130.259,438.946 			"/>
			<polygon id="XMLID_127_" fill="#F3EA97" points="1134.675,436.459 1135.589,435.798 1137.975,435.798 1138.33,436.459 
				1138.33,440.113 1135.183,440.216 			"/>
			<polygon id="XMLID_128_" fill="#F3EA97" points="1128.127,445.698 1128.127,460.521 1133.305,460.521 1133.305,460.166 
				1133.457,447.425 1139.854,447.425 1140.817,457.983 1132.797,458.339 1133.305,460.521 1146.504,460.115 1145.132,444.835 			
				"/>
			<path id="XMLID_130_" fill="#F3EA97" d="M1126.4,463.109l5.382-0.304v11.676c0,0-6.854-2.081-7.106-1.878
				c-0.254,0.202,0.66-3.96,0.66-3.96L1126.4,463.109z"/>
			<polygon id="XMLID_129_" fill="#F3EA97" points="1140.665,462.806 1141.173,474.481 1146.3,474.481 1145.793,462.806 			"/>
			<path id="XMLID_131_" fill="#F3EA97" d="M1132.797,462.806h7.868H1132.797z"/>
			<polygon id="XMLID_132_" fill="#F3EA97" points="1140.716,463.82 1131.782,463.82 1131.782,462.806 1140.665,462.806 			"/>
			<polyline id="XMLID_133_" fill="#F3EA97" points="1110.563,472.857 1110.563,470.218 1110.563,467.933 1110.765,466.156 
				1111.628,463.82 1113.151,463.567 1114.928,463.567 1115.588,463.567 1116.704,464.43 1117.314,466.206 1117.771,467.983 
				1117.517,470.268 1116.806,472.35 1116.704,472.857 1110.563,473.111 			"/>
			<polygon id="XMLID_134_" fill="#F6F6C6" points="1015.683,596.824 1014.363,547.329 1063.604,545.553 1062.386,596.977 			"/>
			<polygon id="XMLID_135_" fill="#F6F6C6" points="1164.524,547.329 1229.757,546.414 1229.757,596.824 1163.915,597.586 			"/>
		</g>
		<g id="Entrance_x5F_layer">
			<path id="XMLID_118_" fill="#F3EA97" d="M1093.861,494.179l0.812-7.818c0-0.051,0-0.152,0.052-0.204l1.522-6.497l5.076-1.827
				l5.025-1.675l10.813-1.066l9.188,0.508c0,0,5.687,3.706,6.396,3.809c1.168,0.151,2.995,5.024,2.234,6.092l-1.879,5.076
				l-3.604,2.438c0,0-14.111-1.625-15.584-1.32C1112.44,491.995,1093.861,494.179,1093.861,494.179z"/>
			<path id="XMLID_120_" fill="#F3EA97" d="M1084.266,505.601c0,0,0.457-3.555,6.144-6.447c5.686-2.893,8.121-3.604,8.375-3.656
				c0.255-0.05,13.099-2.283,21.425-1.42c8.273,0.913,9.034,0.355,14.721,3.451c5.687,3.098,6.752,8.021,6.752,8.021
				L1084.266,505.601L1084.266,505.601z"/>
			<polygon id="XMLID_121_" fill="#F3EA97" points="1082.539,507.479 1082.539,508.139 1079.9,508.139 1079.9,509.356 
				1142.29,509.356 1142.29,507.479 			"/>
			<polygon id="XMLID_122_" fill="#F3EA97" points="1084.672,486.005 1084.977,495.701 1089.038,497.173 1090.764,495.295 
				1091.83,492.096 1091.119,486.005 			"/>
			<path id="XMLID_124_" fill="#F3EA97" d="M1138.026,485.294l2.284-1.624h3.808v9.746l-4.215,2.792l-6.599-2.283
				c0,0,1.422,0,3.3-3.705C1138.432,486.512,1138.026,485.294,1138.026,485.294z"/>
			<polygon id="XMLID_123_" fill="#F3EA97" points="1142.849,500.219 1149.549,499.052 1148.787,509.356 1143.712,509.356 			"/>
		</g>
		<g id="Layer_7">
			
				<rect id="XMLID_136_" x="1063.198" y="532.353" opacity="0.28" fill="#7A7A78" enable-background="new    " width="100.718" height="67.771"/>
			<polygon id="XMLID_137_" opacity="0.23" fill="#7A7A78" enable-background="new    " points="1163.915,534.993 1166.81,535.398 
				1169.602,541.237 1234.327,541.745 1234.073,543.014 1163.915,545.553 			"/>
			<path id="XMLID_139_" opacity="0.35" fill="#7A7A78" enable-background="new    " d="M1011.927,545.553l1.218-4.724l48.987-0.761
				l-4.314-4.721c0,0-0.914-2.031,0.763-2.031c1.675,0,4.618-1.015,4.618-1.015l0.306,11.422L1011.927,545.553z"/>
			<path id="XMLID_140_" opacity="0.45" fill="#7A7A78" enable-background="new    " d="M1088.021,523.47l3.96,0.404l12.083-0.761
				l10.053-0.66l1.42-0.405l5.433,0.659h5.432l2.438-0.102c0,0,1.878,0.102,2.133,0.102c0.254,0,7.462-0.659,7.462-0.659v3.248
				l-1.929,0.66l-2.792,3.147l0.608,1.421v0.661h-44.317h-0.608l0.103-2.642l-0.407-0.761l-1.015-0.407v-2.283v-1.624
				L1088.021,523.47L1088.021,523.47z"/>
			<polygon id="XMLID_141_" fill="#BFA675" points="1232.651,544.841 1236.356,544.841 1248.287,545.095 1248.287,568.803 
				1234.327,568.803 			"/>
			<polygon id="XMLID_138_" fill="#BFA675" points="1234.073,573.979 1248.287,573.979 1248.287,596.824 1234.327,596.977 			"/>
			<path id="XMLID_142_" fill="#BFA675" d="M1176.708,567.634"/>
			<polygon id="XMLID_143_" opacity="0.49" fill="#BFA675" enable-background="new    " points="1013.145,531.236 1013.145,538.444 
				1058.681,538.953 1055.075,535.806 1058.071,531.236 1077.717,531.236 1077.717,529.814 1079.494,527.479 1081.271,527.479 
				1081.931,522.099 1079.9,519.154 1071.523,521.438 1070.255,525.55 1069.341,526.667 			"/>
			<polygon id="XMLID_145_" opacity="0.51" fill="#BFA675" enable-background="new    " points="1143.763,512.098 1143.356,514.94 
				1145.895,516.362 1145.691,530.323 1168.841,531.744 1169.652,532.1 1170.819,538.953 1231.18,539.968 1229.504,534.993 
				1183.765,528.038 1178.13,527.43 1171.022,525.905 1163.915,524.738 1160.972,523.925 1159.702,521.337 1152.341,519.561 
				1149.549,518.899 1148.279,517.275 1147.265,512.098 			"/>
		</g>
	</g>
</g>
</svg>
